<?xml version="1.0" standalone="no"?>
<!DOCTYPE svg PUBLIC "-//W3C//DTD SVG 20010904//EN"
 "http://www.w3.org/TR/2001/REC-SVG-20010904/DTD/svg10.dtd">
<svg version="1.0" xmlns="http://www.w3.org/2000/svg"
 width="150.000000pt" height="150.000000pt" viewBox="0 0 960.000000 1280.000000"
 preserveAspectRatio="xMidYMid meet">

<g transform="translate(0.000000,1280.000000) scale(0.100000,-0.100000)"
fill="#000000" stroke="none">
<path d="M6930 12789 c0 -5 5 -7 10 -4 6 3 10 8 10 11 0 2 -4 4 -10 4 -5 0
-10 -5 -10 -11z"/>
<path d="M6978 12793 c6 -2 18 -2 25 0 6 3 1 5 -13 5 -14 0 -19 -2 -12 -5z"/>
<path d="M7397 12793 c-13 -13 -7 -53 8 -53 8 0 15 -9 15 -19 0 -11 5 -23 10
-26 6 -3 10 -1 10 4 0 6 9 11 20 11 11 0 20 -6 20 -14 0 -9 -7 -12 -20 -9 -21
5 -28 -11 -10 -22 6 -4 8 -11 5 -16 -4 -5 2 -9 12 -9 17 -1 17 -1 1 -11 -10
-5 -18 -17 -18 -25 0 -8 -4 -12 -10 -9 -5 3 -10 15 -10 25 0 10 -6 21 -12 23
-10 4 -10 6 0 6 19 1 14 35 -8 54 -12 10 -26 14 -33 10 -7 -4 -20 -6 -29 -5
-11 2 -18 -3 -18 -12 0 -10 6 -13 15 -10 11 4 15 0 15 -16 0 -19 -3 -20 -15
-10 -16 13 -35 6 -35 -15 0 -8 -16 -22 -35 -31 -35 -16 -46 -39 -22 -47 6 -2
-8 -4 -33 -4 -25 0 -37 2 -27 4 9 3 17 11 17 19 0 8 7 14 15 14 8 0 15 5 15
11 0 7 10 20 22 30 11 11 18 22 14 26 -3 4 -22 -9 -41 -27 -32 -31 -35 -32
-35 -13 0 12 6 23 13 26 10 4 10 7 0 18 -11 11 -13 10 -13 -4 0 -9 -8 -17 -17
-17 -11 0 -14 -3 -7 -8 6 -4 14 -17 18 -29 7 -22 -1 -28 -26 -24 -7 1 -12 -14
-9 -31 0 -4 -7 -9 -17 -12 -9 -3 -24 -19 -33 -34 -15 -27 -15 -30 0 -39 11 -6
24 -5 41 4 16 8 19 13 9 13 -9 0 -22 6 -28 14 -9 11 -4 17 23 30 43 20 41 21
43 -10 1 -19 -2 -23 -10 -15 -6 6 -18 11 -26 10 -12 0 -9 -5 7 -16 l23 -16
-30 -28 c-18 -16 -38 -25 -48 -23 -21 6 -49 -31 -32 -41 5 -4 16 -1 24 5 12
10 15 9 15 -3 0 -19 -29 -30 -45 -17 -8 7 -19 4 -35 -10 -13 -11 -31 -20 -42
-20 -16 0 -23 -11 -19 -34 1 -5 -4 -6 -12 -3 -10 4 -13 -1 -9 -19 5 -28 14
-30 32 -9 22 27 47 18 53 -17 3 -18 8 -44 11 -58 6 -25 6 -25 -4 -2 -5 13 -17
30 -25 39 -17 16 -47 11 -43 -8 2 -6 -2 -13 -8 -16 -7 -2 -15 12 -18 33 -7 36
-8 36 -23 15 -8 -12 -12 -25 -8 -29 3 -3 10 0 15 8 7 11 10 7 10 -17 0 -30 -1
-31 -25 -20 -26 12 -32 31 -15 42 6 3 10 15 10 25 0 10 4 20 10 22 5 2 6 9 1
17 -14 22 -44 5 -36 -20 7 -22 -11 -69 -27 -69 -4 0 -8 12 -7 28 0 23 2 24 8
8 12 -31 22 -2 15 42 -5 35 -4 40 17 47 21 6 22 8 5 12 -10 3 -22 0 -26 -7 -4
-6 -16 -13 -26 -14 -16 -3 -18 -10 -16 -49 2 -28 0 -47 -6 -47 -6 0 -12 16
-14 35 -3 35 -19 49 -26 23 -2 -9 0 -8 8 2 9 12 11 4 7 -36 l-4 -52 39 -6 c26
-4 38 -11 38 -22 0 -13 -7 -15 -37 -11 -20 4 -40 11 -43 18 -6 8 -9 8 -14 0
-9 -14 1 -31 19 -31 8 0 19 -8 25 -17 8 -13 13 -14 16 -5 8 18 22 15 29 -8 3
-11 13 -20 21 -20 8 0 14 -4 14 -10 0 -19 -32 -10 -37 10 -3 11 -9 20 -14 20
-13 0 -11 -34 3 -48 17 -17 -19 -28 -43 -14 -27 17 -28 17 -31 -34 -3 -44 -8
-51 -46 -71 -2 -1 6 -11 18 -23 14 -14 28 -19 42 -14 18 5 19 4 7 -9 -10 -10
-19 -12 -31 -6 -22 12 -58 12 -58 0 0 -5 9 -7 20 -4 18 5 20 0 20 -35 l0 -41
33 11 c17 6 37 14 42 19 6 4 27 10 48 14 39 8 48 -3 27 -35 -8 -13 -10 -12
-10 3 0 19 -16 24 -22 6 -4 -12 -74 -28 -123 -28 -20 -1 -26 2 -17 8 10 6 9
10 -7 14 -12 3 -21 1 -21 -4 0 -5 -6 -9 -14 -9 -8 0 -12 -9 -11 -22 1 -13 3
-29 4 -35 3 -28 18 -11 16 17 -1 17 2 33 7 36 4 3 8 0 8 -5 0 -7 30 -11 80
-11 53 0 80 -4 80 -11 0 -8 -19 -10 -62 -6 -35 3 -72 2 -83 -3 -16 -7 -12 -9
20 -11 l40 -2 -40 -7 -40 -7 42 -2 c30 -1 41 -5 38 -14 -4 -9 7 -11 40 -9 25
2 45 0 45 -5 0 -5 -18 -7 -40 -5 -25 3 -40 0 -40 -7 0 -6 17 -11 38 -11 l37
-1 -30 -14 c-18 -8 -23 -14 -13 -14 9 -1 18 -11 20 -23 3 -21 5 -20 25 12 15
23 23 29 23 18 0 -10 -4 -18 -10 -18 -5 0 -10 -7 -10 -15 0 -8 8 -15 18 -15
14 0 19 8 20 31 1 38 12 53 12 16 0 -15 5 -27 10 -27 6 0 10 -4 10 -10 0 -5
-6 -10 -14 -10 -16 0 -29 -27 -20 -41 3 -5 12 -9 20 -9 8 0 12 -5 9 -10 -4 -6
-2 -17 5 -25 8 -10 8 -19 1 -34 -15 -27 -14 -34 4 -27 24 9 18 -11 -12 -40
-27 -25 -27 -26 -5 -21 14 3 25 -1 32 -11 8 -15 11 -15 20 -2 9 13 11 13 19 0
6 -8 13 -11 18 -7 4 5 1 12 -6 16 -11 7 -11 10 0 15 11 5 11 7 2 12 -19 8 -16
27 2 20 11 -4 19 3 25 19 9 23 13 25 50 19 36 -6 40 -4 40 13 0 22 23 47 33
36 4 -3 7 -1 7 5 0 5 -6 13 -12 15 -8 3 -6 6 5 6 23 1 22 -26 -3 -41 -11 -7
-20 -18 -20 -25 0 -17 17 -17 23 0 3 7 6 5 6 -5 1 -11 9 -18 21 -18 11 0 20
-7 20 -15 0 -18 21 -20 39 -2 10 10 11 8 5 -6 -4 -11 0 -25 12 -38 17 -19 17
-20 -2 -13 -10 4 -22 12 -25 17 -11 15 -49 -16 -49 -40 0 -13 5 -23 10 -23 6
0 10 -7 10 -15 0 -8 9 -15 20 -15 11 0 20 7 20 15 0 8 5 15 10 15 6 0 10 -11
10 -24 0 -18 -7 -26 -22 -29 -20 -4 -19 -4 5 -6 24 -1 27 3 28 32 1 17 5 43 9
57 7 21 8 22 9 5 1 -12 6 -26 13 -33 9 -9 9 -15 0 -24 -9 -9 -12 -8 -12 7 0
10 -2 16 -5 13 -8 -8 5 -58 15 -58 5 0 11 14 15 30 7 33 21 37 51 16 18 -14
18 -15 0 -22 -11 -4 -21 -2 -27 7 -6 10 -9 8 -9 -10 0 -21 3 -23 30 -17 17 3
30 1 30 -4 0 -5 9 -14 21 -21 19 -10 20 -8 15 13 -3 12 -3 17 0 11 6 -14 36
-17 48 -6 3 4 -4 13 -16 20 -22 11 -20 12 20 13 31 0 42 -4 42 -15 0 -9 12
-21 26 -27 21 -10 27 -9 36 3 7 10 8 6 3 -16 -13 -56 -12 -59 33 -68 33 -6 42
-13 42 -28 0 -14 6 -19 18 -17 12 2 19 16 23 48 l6 45 1 -42 c2 -49 22 -59 22
-12 0 23 4 30 15 26 19 -8 31 13 14 24 -8 5 -9 9 -3 9 14 0 34 -21 34 -37 0
-7 -11 -13 -25 -13 -14 0 -25 -5 -25 -11 0 -5 4 -8 9 -4 6 3 14 -3 20 -12 10
-17 11 -16 17 5 3 12 10 22 15 22 5 0 9 11 9 25 0 16 -6 25 -15 25 -8 0 -15 4
-15 10 0 5 8 6 18 3 22 -9 47 -33 33 -33 -6 0 -11 -4 -11 -10 0 -5 7 -10 15
-10 14 0 19 -14 18 -47 -1 -7 4 -13 9 -13 6 0 7 -11 3 -27 -6 -27 -6 -27 9 -8
10 14 11 24 4 32 -7 9 -7 13 0 13 6 0 14 9 17 20 3 11 14 20 23 20 13 0 12 -4
-6 -20 -12 -11 -19 -27 -16 -35 7 -18 24 -10 24 11 0 8 9 14 21 14 18 0 19 -2
9 -15 -18 -22 -4 -31 25 -15 22 12 30 11 60 -3 22 -10 35 -13 35 -6 0 7 10 9
26 5 25 -7 25 -6 10 10 -21 20 -14 29 11 16 10 -5 23 -7 29 -5 7 2 11 -4 10
-14 0 -10 6 -18 14 -18 9 0 14 7 12 18 -2 10 3 17 13 17 12 0 15 -6 10 -20 -5
-16 -2 -20 19 -20 27 0 36 -15 14 -23 -7 -2 -4 -2 7 1 27 7 86 5 93 -3 4 -3 0
-10 -8 -16 -11 -6 -4 -8 23 -6 20 3 37 0 37 -4 0 -5 -23 -9 -51 -9 -41 0 -50
3 -45 15 6 17 -2 19 -24 5 -29 -18 7 -33 82 -34 40 -1 81 -5 91 -10 13 -6 17
-4 17 9 0 11 5 15 16 11 8 -3 28 1 45 9 28 15 29 15 29 -10 0 -26 27 -46 39
-28 3 5 13 12 22 15 12 5 17 0 17 -18 0 -14 -5 -21 -11 -17 -6 3 -7 1 -3 -5 4
-7 13 -12 21 -12 7 0 19 -13 27 -30 9 -21 20 -30 35 -30 13 0 23 5 23 11 0 6
-6 9 -14 6 -17 -7 -51 39 -36 48 5 3 15 -3 22 -15 15 -24 28 -26 28 -4 0 8 -4
12 -10 9 -6 -4 -10 5 -9 22 1 17 3 21 6 11 2 -10 9 -18 14 -18 5 0 13 -10 18
-22 l8 -22 5 22 c4 12 2 22 -4 22 -5 0 -6 5 -2 11 11 18 24 -11 24 -55 0 -38
-1 -39 -15 -20 -16 19 -16 19 -13 -1 2 -11 11 -21 21 -23 14 -3 17 4 17 47 0
29 5 51 11 51 5 0 7 -5 4 -11 -9 -14 4 -79 15 -79 6 0 10 7 10 15 0 8 5 15 10
15 6 0 10 -7 10 -15 0 -16 16 -21 22 -7 2 5 15 12 31 16 20 5 27 3 27 -9 0 -8
5 -15 10 -15 22 0 8 -15 -15 -16 -14 -1 -25 2 -25 7 0 5 -5 9 -10 9 -6 0 -5
-8 2 -20 10 -16 10 -24 0 -40 -7 -11 -10 -20 -6 -20 10 0 34 28 34 40 0 7 8
10 20 7 15 -4 20 0 20 13 0 10 7 20 15 24 26 9 45 -5 45 -34 0 -24 3 -27 28
-22 18 3 24 1 17 -6 -5 -6 -19 -12 -30 -14 -21 -3 -55 -33 -55 -48 0 -6 10 -5
25 2 14 6 25 17 25 25 0 17 30 17 30 1 0 -7 12 -21 25 -31 23 -17 26 -17 32
-2 3 10 0 21 -8 26 -10 6 -11 11 -3 19 7 7 18 4 37 -10 32 -26 34 -36 7 -45
-25 -8 -26 -22 -2 -28 16 -4 16 -5 0 -6 -22 -1 -24 -21 -3 -21 8 0 15 -4 15
-10 0 -5 -4 -10 -10 -10 -5 0 -10 -5 -10 -11 0 -5 4 -8 9 -4 5 3 12 1 16 -5 3
-5 24 -10 46 -10 37 0 39 1 24 16 -12 13 -19 14 -28 5 -14 -14 -27 -14 -27 -1
0 6 6 10 14 10 8 0 16 5 18 12 3 8 12 5 28 -10 13 -12 27 -22 32 -22 4 0 8 -4
8 -9 0 -6 -21 -12 -47 -14 l-48 -3 54 -2 c44 -2 59 2 78 20 13 12 23 16 23 10
0 -6 -5 -14 -12 -18 -23 -15 27 -23 145 -23 l117 -1 0 1055 0 1055 -694 0
c-546 0 -695 -3 -699 -12 -4 -10 -6 -10 -6 0 -1 7 -14 12 -31 12 -17 0 -30 -5
-30 -12 0 -10 -2 -10 -8 -1 -10 16 -410 15 -429 0 -9 -6 -13 -6 -13 1 0 5 -26
9 -59 9 -35 0 -59 -5 -58 -11 1 -5 -2 -11 -8 -11 -20 -3 -45 -17 -45 -26 0 -5
11 -11 25 -15 14 -3 22 -11 19 -16 -4 -6 0 -14 7 -19 11 -6 11 -11 1 -21 -9
-9 -12 -9 -12 1 0 23 -34 46 -69 46 -25 0 -38 6 -46 20 -5 11 -16 20 -24 20
-24 0 -23 23 1 28 21 4 21 4 2 6 -11 0 -24 -2 -27 -6z m243 -13 c0 -5 -4 -10
-10 -10 -5 0 -10 5 -10 10 0 6 5 10 10 10 6 0 10 -4 10 -10z m174 -5 c-4 -8
-10 -12 -15 -9 -11 6 -2 24 11 24 5 0 7 -7 4 -15z m-84 -1 c0 -7 -27 -34 -34
-34 -4 0 -1 9 6 20 12 19 28 27 28 14z m-120 -14 c0 -5 -2 -10 -4 -10 -3 0 -8
5 -11 10 -3 6 -1 10 4 10 6 0 11 -4 11 -10z m60 0 c0 -5 -4 -10 -10 -10 -5 0
-10 5 -10 10 0 6 5 10 10 10 6 0 10 -4 10 -10z m-90 -10 c0 -5 -4 -10 -9 -10
-6 0 -13 5 -16 10 -3 6 1 10 9 10 9 0 16 -4 16 -10z m60 -10 c0 -5 -4 -10 -10
-10 -5 0 -10 5 -10 10 0 6 5 10 10 10 6 0 10 -4 10 -10z m150 5 c0 -2 -10 -10
-22 -16 -21 -11 -22 -11 -9 4 13 16 31 23 31 12z m-179 -22 c8 -9 9 -14 2 -10
-6 4 -13 1 -16 -5 -2 -8 -8 -9 -13 -4 -5 5 -4 11 4 13 6 3 10 9 6 14 -9 15 3
10 17 -8z m68 -28 c0 -5 -3 -4 -8 3 -6 10 -10 7 -15 -12 -6 -26 -26 -36 -26
-13 0 8 -4 7 -11 -3 -9 -12 -10 -12 -5 3 3 10 6 22 6 25 0 4 4 0 10 -8 11 -18
18 -12 24 21 2 13 5 26 6 29 2 7 18 -32 19 -45z m45 20 c-6 -16 -24 -21 -24
-7 0 11 11 22 21 22 5 0 6 -7 3 -15z m-180 -37 c9 -17 14 -34 11 -36 -7 -8
-13 0 -30 42 -19 44 -3 40 19 -6z m313 20 c-3 -8 -6 -5 -6 6 -1 11 2 17 5 13
3 -3 4 -12 1 -19z m-457 -23 c0 -8 -7 -15 -15 -15 -16 0 -20 12 -8 23 11 12
23 8 23 -8z m293 -20 c4 -8 2 -17 -3 -20 -6 -4 -10 3 -10 14 0 25 6 27 13 6z
m211 -10 c3 -8 1 -15 -4 -15 -6 0 -10 7 -10 15 0 8 2 15 4 15 2 0 6 -7 10 -15z
m-377 -1 c-3 -3 -12 -4 -19 -1 -8 3 -5 6 6 6 11 1 17 -2 13 -5z m73 -14 c6
-11 8 -20 6 -20 -3 0 -10 9 -16 20 -6 11 -8 20 -6 20 3 0 10 -9 16 -20z m50 6
c-7 -7 -13 -7 -20 0 -6 6 -3 10 10 10 13 0 16 -4 10 -10z m-280 -6 c-1 -14
-41 -51 -50 -45 -13 8 -13 28 0 41 10 10 50 14 50 4z m370 -28 c0 -4 -9 -13
-20 -20 -23 -14 -26 -8 -7 13 13 16 27 19 27 7z m-446 -27 c-4 -9 0 -15 9 -15
10 0 13 -6 10 -21 -6 -21 -6 -21 -19 2 -16 29 -18 49 -4 49 5 0 7 -7 4 -15z
m140 -18 c7 -6 4 -7 -7 -3 -11 3 -20 0 -23 -9 -4 -8 -10 -15 -14 -15 -12 0
-19 39 -9 46 5 3 9 0 9 -5 0 -19 20 -12 21 7 0 13 2 14 6 2 3 -8 11 -19 17
-23z m36 -1 c0 -3 -4 -8 -10 -11 -5 -3 -10 -1 -10 4 0 6 5 11 10 11 6 0 10 -2
10 -4z m57 -18 c-3 -8 -6 -5 -6 6 -1 11 2 17 5 13 3 -3 4 -12 1 -19z m83 7
c-7 -9 -15 -13 -19 -10 -3 3 1 10 9 15 21 14 24 12 10 -5z m45 5 c-3 -5 -2
-10 3 -10 6 0 12 -7 15 -14 4 -10 1 -13 -9 -9 -7 3 -14 9 -14 15 0 5 -4 6 -10
3 -5 -3 -10 -2 -10 4 0 5 6 12 13 14 18 8 19 8 12 -3z m-375 -30 c0 -23 -4
-24 -31 -9 -23 12 -16 29 12 29 12 0 19 -7 19 -20z m477 14 c-3 -3 -12 -4 -19
-1 -8 3 -5 6 6 6 11 1 17 -2 13 -5z m-240 -46 c-3 -7 -5 -2 -5 12 0 14 2 19 5
13 2 -7 2 -19 0 -25z m118 13 c-3 -6 -11 -11 -16 -11 -5 0 -4 6 3 14 14 16 24
13 13 -3z m-198 3 c-3 -3 -12 -4 -19 -1 -8 3 -5 6 6 6 11 1 17 -2 13 -5z
m-197 -34 c-20 -13 -40 -13 -40 0 0 6 12 10 28 10 21 0 24 -2 12 -10z m63 -10
c-10 -11 -24 -20 -32 -20 -9 0 -6 7 9 20 13 11 27 20 31 20 5 0 1 -9 -8 -20z
m87 -20 c0 -5 -4 -10 -10 -10 -5 0 -10 5 -10 10 0 6 5 10 10 10 6 0 10 -4 10
-10z m90 0 c0 -5 -2 -10 -4 -10 -3 0 -8 5 -11 10 -3 6 -1 10 4 10 6 0 11 -4
11 -10z m-140 -10 c0 -5 -7 -10 -16 -10 -8 0 -12 5 -9 10 3 6 10 10 16 10 5 0
9 -4 9 -10z m-49 -18 c14 -6 15 -9 3 -20 -12 -10 -14 -10 -14 2 0 8 -8 17 -17
19 -12 3 -13 5 -3 5 8 0 22 -2 31 -6z m-103 -11 c24 -15 9 -45 -23 -51 -22 -4
-30 -11 -31 -26 -1 -12 -4 -26 -8 -32 -4 -7 -2 -21 4 -32 9 -16 8 -20 -5 -20
-11 0 -14 -7 -10 -27 5 -27 5 -27 -5 -4 -7 17 -7 28 1 37 9 11 8 18 -2 30 -10
13 -10 17 2 25 12 8 12 10 -1 19 -10 6 -11 10 -2 10 6 0 12 5 12 11 0 8 -6 7
-17 -2 -13 -11 -17 -11 -20 -1 -3 6 -11 12 -18 12 -7 0 -16 -6 -18 -12 -4 -8
-6 -9 -6 -2 -1 6 6 17 14 24 12 10 18 10 30 0 12 -10 19 -10 27 -2 7 7 24 12
39 12 34 0 45 15 22 29 -10 6 -13 10 -8 11 6 0 16 -4 23 -9z m179 -11 c1 -11
-2 -18 -8 -15 -11 7 -12 35 -1 35 4 0 8 -9 9 -20z m-140 -14 c-7 -14 -13 -23
-15 -21 -7 6 9 45 18 45 4 0 3 -11 -3 -24z m290 18 c-3 -3 -12 -4 -19 -1 -8 3
-5 6 6 6 11 1 17 -2 13 -5z m-332 -64 c3 -5 -1 -10 -10 -10 -9 0 -13 5 -10 10
3 6 8 10 10 10 2 0 7 -4 10 -10z m-315 -22 c0 -19 -2 -20 -10 -8 -13 19 -13
30 0 30 6 0 10 -10 10 -22z m214 1 c-8 -14 -24 -10 -24 6 0 9 6 12 15 9 8 -4
12 -10 9 -15z m221 11 c3 -5 1 -10 -4 -10 -6 0 -11 5 -11 10 0 6 2 10 4 10 3
0 8 -4 11 -10z m-45 -30 c0 -13 -30 -13 -50 0 -11 7 -7 10 18 10 17 0 32 -4
32 -10z m-180 -20 c0 -5 -4 -10 -10 -10 -5 0 -10 5 -10 10 0 6 5 10 10 10 6 0
10 -4 10 -10z m200 -16 c14 -8 17 -13 7 -10 -10 3 -25 6 -33 6 -8 0 -14 5 -14
10 0 14 10 12 40 -6z m70 12 c0 -3 -4 -8 -10 -11 -5 -3 -10 -1 -10 4 0 6 5 11
10 11 6 0 10 -2 10 -4z m-263 -46 c7 -10 9 -21 5 -24 -4 -2 -12 7 -19 20 -13
29 -3 32 14 4z m123 -34 c0 -8 6 -16 13 -19 6 -2 4 -3 -5 -2 -19 3 -25 -10 -8
-18 6 -3 5 -4 -2 -3 -16 3 -24 56 -9 56 6 0 11 -6 11 -14z m50 4 c0 -5 -5 -10
-11 -10 -5 0 -7 5 -4 10 3 6 8 10 11 10 2 0 4 -4 4 -10z m-320 -22 c0 -4 -12
-8 -26 -8 -14 0 -23 4 -20 8 2 4 14 8 25 8 12 0 21 -4 21 -8z m121 -28 c5 0 9
-5 9 -11 0 -8 -5 -8 -15 1 -12 10 -15 10 -15 0 0 -8 -3 -11 -6 -7 -3 3 -2 16
2 29 6 19 9 20 12 6 2 -10 8 -18 13 -18z m266 -2 c-3 -8 -6 -5 -6 6 -1 11 2
17 5 13 3 -3 4 -12 1 -19z m60 6 c-3 -3 -12 -4 -19 -1 -8 3 -5 6 6 6 11 1 17
-2 13 -5z m-417 -19 c6 -8 8 -20 4 -27 -5 -7 -7 -26 -5 -41 2 -27 1 -28 -20
-17 -21 12 -21 13 -4 23 19 10 18 11 0 18 -17 7 -18 8 -2 8 20 1 24 37 5 44
-8 4 -9 6 -2 6 6 1 17 -6 24 -14z m154 -9 c-3 -9 -10 -16 -15 -16 -6 0 -5 9 1
21 13 24 24 20 14 -5z m34 -7 c-2 -6 -8 -10 -13 -10 -5 0 -11 4 -13 10 -2 6 4
11 13 11 9 0 15 -5 13 -11z m209 -14 c0 -8 -4 -15 -9 -15 -10 0 -11 14 -1 23
9 10 10 9 10 -8z m-347 -15 c-6 -4 -12 -23 -13 -43 -1 -20 -7 -37 -12 -37 -13
0 -7 70 7 87 6 7 15 10 20 7 6 -4 6 -9 -2 -14z m211 13 c-19 -4 -21 -7 -10
-14 11 -7 9 -9 -8 -9 -16 0 -21 4 -17 15 4 9 17 14 33 14 25 -2 25 -2 2 -6z
m-191 -40 c-11 -17 -11 -17 -6 0 3 10 6 24 7 30 0 9 2 9 5 0 3 -7 0 -20 -6
-30z m122 17 c-10 -12 -18 -16 -21 -9 -2 6 3 15 10 20 24 15 29 10 11 -11z
m273 10 c3 -6 -1 -7 -9 -4 -18 7 -21 14 -7 14 6 0 13 -4 16 -10z m-515 -21 c0
-5 -4 -9 -10 -9 -5 0 -10 7 -10 16 0 8 5 12 10 9 6 -3 10 -10 10 -16z m150
-30 c0 -5 -4 -9 -10 -9 -5 0 -10 7 -10 16 0 8 5 12 10 9 6 -3 10 -10 10 -16z
m40 11 c0 -5 -4 -10 -10 -10 -5 0 -10 5 -10 10 0 6 5 10 10 10 6 0 10 -4 10
-10z m-221 -22 c8 -20 4 -25 -28 -41 l-36 -18 33 4 c28 3 32 1 32 -20 0 -20 5
-23 38 -22 23 1 28 3 15 6 -13 2 -23 7 -24 11 0 4 -2 19 -4 34 -4 29 18 57 30
38 3 -5 1 -10 -4 -10 -6 0 -11 -11 -11 -25 0 -30 20 -33 27 -5 3 11 9 17 15
14 5 -3 4 -11 -2 -19 -6 -8 -10 -22 -8 -32 2 -15 -5 -19 -46 -21 -27 -2 -54 2
-59 7 -8 8 -5 11 9 11 25 1 -41 30 -67 30 -11 0 -19 5 -19 11 0 6 8 8 19 4 16
-5 19 -1 18 15 -1 11 -5 20 -9 20 -4 0 -8 7 -8 15 0 11 11 15 40 15 33 0 42
-4 49 -22z m391 2 c0 -5 -5 -10 -11 -10 -5 0 -7 5 -4 10 3 6 8 10 11 10 2 0 4
-4 4 -10z m-145 -22 c6 -4 0 -8 -12 -8 -16 0 -21 4 -16 15 3 9 8 12 12 8 3 -4
11 -11 16 -15z m80 12 c3 -5 1 -10 -4 -10 -6 0 -11 5 -11 10 0 6 2 10 4 10 3
0 8 -4 11 -10z m-142 -17 c-7 -2 -19 -2 -25 0 -7 3 -2 5 12 5 14 0 19 -2 13
-5z m-45 -21 c2 -7 -3 -12 -12 -12 -9 0 -16 7 -16 16 0 17 22 14 28 -4z m177
8 c-3 -5 -11 -10 -16 -10 -6 0 -7 5 -4 10 3 6 11 10 16 10 6 0 7 -4 4 -10z
m-97 -7 c-10 -2 -28 -2 -40 0 -13 2 -5 4 17 4 22 1 32 -1 23 -4z m172 -13 c0
-5 -2 -10 -4 -10 -3 0 -8 5 -11 10 -3 6 -1 10 4 10 6 0 11 -4 11 -10z m-172
-17 c-10 -2 -28 -2 -40 0 -13 2 -5 4 17 4 22 1 32 -1 23 -4z m-83 -13 c3 -5
-1 -10 -10 -10 -9 0 -13 5 -10 10 3 6 8 10 10 10 2 0 7 -4 10 -10z m105 -15
c0 -8 -2 -15 -4 -15 -2 0 -6 7 -10 15 -3 8 -1 15 4 15 6 0 10 -7 10 -15z
m-296 -24 c3 -5 -6 -11 -19 -14 -27 -5 -44 8 -23 16 21 8 36 8 42 -2z m180
-12 c13 -11 5 -18 -33 -29 -33 -9 -38 -1 -25 34 6 17 38 14 58 -5z m183 -21
c-3 -8 -6 -5 -6 6 -1 11 2 17 5 13 3 -3 4 -12 1 -19z m-127 -8 c0 -5 -4 -10
-10 -10 -5 0 -10 5 -10 10 0 6 5 10 10 10 6 0 10 -4 10 -10z m95 0 c3 -5 -1
-10 -10 -10 -9 0 -13 5 -10 10 3 6 8 10 10 10 2 0 7 -4 10 -10z m101 -12 c-8
-5 -19 -9 -23 -9 -5 0 -14 -5 -21 -11 -7 -6 -15 -8 -19 -4 -4 3 8 12 25 18 18
7 32 16 32 21 0 4 5 5 11 1 8 -5 7 -10 -5 -16z m-299 -50 c-3 -7 -5 -2 -5 12
0 14 2 19 5 13 2 -7 2 -19 0 -25z m63 12 c0 -11 -7 -20 -15 -20 -8 0 -15 9
-15 20 0 11 7 20 15 20 8 0 15 -9 15 -20z m115 10 c-3 -5 -11 -10 -16 -10 -6
0 -7 5 -4 10 3 6 11 10 16 10 6 0 7 -4 4 -10z m110 -9 c3 -5 1 -12 -5 -16 -5
-3 -10 1 -10 9 0 18 6 21 15 7z m-58 -7 c-3 -3 -12 -4 -19 -1 -8 3 -5 6 6 6
11 1 17 -2 13 -5z m340 -26 c-3 -8 -6 -5 -6 6 -1 11 2 17 5 13 3 -3 4 -12 1
-19z m50 0 c-3 -8 -6 -5 -6 6 -1 11 2 17 5 13 3 -3 4 -12 1 -19z m-681 4 c8
-5 8 -15 3 -31 -11 -28 -14 -26 -23 12 -6 27 -1 33 20 19z m56 -37 c3 -14 1
-28 -3 -31 -5 -3 -9 9 -9 25 0 38 6 40 12 6z m56 13 c-3 -7 -11 -13 -18 -13
-7 0 -15 6 -17 13 -3 7 4 12 17 12 13 0 20 -5 18 -12z m49 -4 c-3 -3 -12 -4
-19 -1 -8 3 -5 6 6 6 11 1 17 -2 13 -5z m21 -51 c-10 -2 -26 -2 -35 0 -10 3
-2 5 17 5 19 0 27 -2 18 -5z m112 -3 c0 -5 -8 -10 -17 -10 -15 0 -16 2 -3 10
19 12 20 12 20 0z m-60 -60 c0 -33 -3 -60 -7 -60 -5 0 -8 27 -8 60 0 33 3 60
8 60 4 0 7 -27 7 -60z m100 50 c0 -5 -2 -10 -4 -10 -3 0 -8 5 -11 10 -3 6 -1
10 4 10 6 0 11 -4 11 -10z m-43 -57 c-3 -10 -5 -2 -5 17 0 19 2 27 5 18 2 -10
2 -26 0 -35z m-30 5 c-3 -7 -5 -2 -5 12 0 14 2 19 5 13 2 -7 2 -19 0 -25z
m-64 -5 c15 -17 13 -18 -23 -18 -36 0 -38 1 -23 18 9 9 19 17 23 17 4 0 14 -8
23 -17z m-139 -9 c3 -8 2 -12 -4 -9 -6 3 -10 10 -10 16 0 14 7 11 14 -7z m56
-24 c0 -5 9 -10 20 -10 24 0 26 -25 5 -46 -8 -8 -12 -22 -9 -32 5 -13 4 -14
-4 -3 -8 11 -15 9 -38 -14 -24 -25 -25 -27 -6 -21 25 8 30 -9 6 -18 -33 -13
-44 12 -17 39 13 14 14 18 2 25 -7 5 -14 26 -16 47 l-2 38 18 -24 c10 -13 16
-32 14 -42 -6 -23 10 -25 31 -3 17 16 22 44 8 44 -5 0 -17 7 -28 15 -17 13
-17 14 -1 15 9 0 17 -4 17 -10z m67 4 c-3 -3 -12 -4 -19 -1 -8 3 -5 6 6 6 11
1 17 -2 13 -5z m133 -4 c0 -5 -4 -10 -10 -10 -5 0 -10 5 -10 10 0 6 5 10 10
10 6 0 10 -4 10 -10z m90 -40 c0 -5 -5 -10 -11 -10 -5 0 -7 5 -4 10 3 6 8 10
11 10 2 0 4 -4 4 -10z m-61 -24 c10 -12 8 -13 -8 -9 -12 3 -18 9 -15 14 7 12
10 11 23 -5z m79 -46 c19 -63 13 -81 -8 -20 -23 65 -22 60 -12 60 4 0 13 -18
20 -40z m122 -15 c-7 -8 -17 -15 -22 -15 -11 0 14 29 26 30 5 0 3 -7 -4 -15z
m-50 -11 c0 -2 -9 -4 -20 -4 -11 0 -20 4 -20 9 0 5 9 7 20 4 11 -3 20 -7 20
-9z m2 -26 c-9 -9 -15 -9 -24 0 -9 9 -7 12 12 12 19 0 21 -3 12 -12z m-45 -20
c-3 -8 -6 -5 -6 6 -1 11 2 17 5 13 3 -3 4 -12 1 -19z m123 2 c0 -5 -7 -10 -15
-10 -8 0 -15 5 -15 10 0 6 7 10 15 10 8 0 15 -4 15 -10z m883 3 c-7 -2 -21 -2
-30 0 -10 3 -4 5 12 5 17 0 24 -2 18 -5z m-923 -43 c0 -5 -5 -10 -11 -10 -5 0
-7 5 -4 10 3 6 8 10 11 10 2 0 4 -4 4 -10z m557 -12 c-3 -8 -6 -5 -6 6 -1 11
2 17 5 13 3 -3 4 -12 1 -19z m-367 -8 c0 -5 -2 -10 -4 -10 -3 0 -8 5 -11 10
-3 6 -1 10 4 10 6 0 11 -4 11 -10z m70 1 c0 -5 -5 -11 -12 -13 -16 -6 -1 -27
26 -38 18 -7 18 -9 3 -9 -16 -1 -17 -7 -11 -46 4 -30 3 -45 -5 -45 -6 0 -11
17 -11 39 0 34 -3 38 -20 34 -12 -3 -20 0 -20 6 0 7 4 9 10 6 5 -3 18 -1 27 4
17 10 17 10 1 11 -18 0 -23 16 -12 44 7 17 24 22 24 7z m80 -11 c0 -5 -7 -7
-15 -4 -8 4 -15 8 -15 10 0 2 7 4 15 4 8 0 15 -4 15 -10z m-140 -35 c0 -16 -6
-25 -15 -25 -18 0 -19 4 -3 30 16 26 18 25 18 -5z m150 5 c0 -5 -4 -10 -10
-10 -5 0 -10 5 -10 10 0 6 5 10 10 10 6 0 10 -4 10 -10z m180 0 c0 -5 -4 -10
-10 -10 -5 0 -10 5 -10 10 0 6 5 10 10 10 6 0 10 -4 10 -10z m41 -41 c-5 -13
-10 -19 -10 -12 -1 15 10 45 15 40 3 -2 0 -15 -5 -28z m-332 -15 c12 -11 -12
-16 -32 -6 -12 6 -29 13 -37 16 -8 3 3 3 25 0 22 -3 42 -8 44 -10z m241 0 c0
-2 -9 -4 -21 -4 -11 0 -18 4 -14 10 5 8 35 3 35 -6z m100 -34 c8 -16 8 -20 -4
-20 -10 0 -13 6 -10 15 4 11 2 13 -9 9 -8 -3 -18 -1 -22 5 -3 7 2 11 14 11 11
0 25 -9 31 -20z m70 -24 c0 -2 -11 -1 -25 2 -14 2 -22 8 -19 13 4 8 44 -6 44
-15z m360 14 c0 -5 -2 -10 -4 -10 -3 0 -8 5 -11 10 -3 6 -1 10 4 10 6 0 11 -4
11 -10z m-130 -10 c0 -5 -4 -10 -9 -10 -5 0 -24 -2 -42 -5 l-34 -6 35 14 c45
18 50 19 50 7z m20 -30 c0 -5 -11 -10 -25 -10 -14 0 -25 5 -25 10 0 6 11 10
25 10 14 0 25 -4 25 -10z m220 -22 c0 -6 -6 -5 -15 2 -8 7 -15 14 -15 16 0 2
7 1 15 -2 8 -4 15 -11 15 -16z m-60 -18 c-33 -26 -50 -26 -20 0 13 11 28 20
34 20 6 0 0 -9 -14 -20z m180 -50 c0 -22 -2 -40 -4 -40 -2 0 -6 18 -8 40 -2
22 0 40 4 40 5 0 8 -18 8 -40z m67 34 c-3 -3 -12 -4 -19 -1 -8 3 -5 6 6 6 11
1 17 -2 13 -5z m-37 -54 c0 -5 -5 -10 -11 -10 -5 0 -7 5 -4 10 3 6 8 10 11 10
2 0 4 -4 4 -10z m177 -12 c-3 -8 -6 -5 -6 6 -1 11 2 17 5 13 3 -3 4 -12 1 -19z
m-27 2 c0 -5 -8 -10 -17 -10 -15 0 -16 2 -3 10 19 12 20 12 20 0z m88 -7 c-10
-2 -18 -9 -18 -15 0 -6 -3 -9 -6 -5 -10 10 6 27 24 26 15 -1 15 -2 0 -6z m97
-45 c-1 -19 -8 -22 -43 -23 -23 -1 -37 2 -31 6 8 4 7 8 -2 12 -19 8 9 27 36
25 17 -1 17 -1 -2 -5 -25 -5 -32 -23 -9 -23 8 0 21 -3 29 -6 11 -4 14 2 12 20
-2 15 0 24 4 21 4 -2 7 -14 6 -27z m102 -54 c-3 -3 -12 -4 -19 -1 -8 3 -5 6 6
6 11 1 17 -2 13 -5z m-30 -20 c-3 -3 -12 -4 -19 -1 -8 3 -5 6 6 6 11 1 17 -2
13 -5z m40 -10 c-3 -3 -12 -4 -19 -1 -8 3 -5 6 6 6 11 1 17 -2 13 -5z m58 -14
c3 -5 1 -10 -4 -10 -6 0 -11 5 -11 10 0 6 2 10 4 10 3 0 8 -4 11 -10z m-35
-10 c0 -5 -5 -10 -11 -10 -5 0 -7 5 -4 10 3 6 8 10 11 10 2 0 4 -4 4 -10z m50
-82 c0 -5 -4 -8 -10 -8 -5 0 -10 10 -10 23 0 18 2 19 10 7 5 -8 10 -18 10 -22z
m-20 -28 c0 -5 -4 -10 -10 -10 -5 0 -10 5 -10 10 0 6 5 10 10 10 6 0 10 -4 10
-10z m124 -15 c-4 -8 -8 -15 -10 -15 -2 0 -4 7 -4 15 0 8 4 15 10 15 5 0 7 -7
4 -15z m-34 -5 c0 -5 -7 -10 -15 -10 -8 0 -15 5 -15 10 0 6 7 10 15 10 8 0 15
-4 15 -10z m100 -50 c18 -12 2 -12 -25 0 -13 6 -15 9 -5 9 8 0 22 -4 30 -9z"/>
<path d="M6855 12000 c-3 -5 1 -10 9 -10 9 0 16 5 16 10 0 6 -4 10 -9 10 -6 0
-13 -4 -16 -10z"/>
<path d="M6960 11870 c0 -5 7 -10 15 -10 8 0 15 5 15 10 0 6 -7 10 -15 10 -8
0 -15 -4 -15 -10z"/>
<path d="M7450 12780 c0 -14 7 -20 21 -20 15 0 19 4 15 16 -3 9 -6 18 -6 20 0
2 -7 4 -15 4 -8 0 -15 -9 -15 -20z"/>
<path d="M7350 12775 c-8 -9 -8 -15 -2 -15 12 0 26 19 19 26 -2 2 -10 -2 -17
-11z"/>
<path d="M7075 12760 c-3 -5 -2 -10 4 -10 5 0 13 5 16 10 3 6 2 10 -4 10 -5 0
-13 -4 -16 -10z"/>
<path d="M7142 12740 c-7 -12 -8 -20 -2 -20 5 0 10 5 10 10 0 6 5 10 10 10 6
0 10 -7 10 -15 0 -8 7 -15 15 -15 14 0 13 3 -2 25 -22 30 -25 30 -41 5z"/>
<path d="M7360 12734 c0 -8 5 -12 10 -9 6 3 10 10 10 16 0 5 -4 9 -10 9 -5 0
-10 -7 -10 -16z"/>
<path d="M7290 12729 c0 -5 11 -9 25 -9 33 0 33 15 0 16 -14 1 -25 -2 -25 -7z"/>
<path d="M7035 12720 c-17 -7 -17 -9 -2 -9 9 -1 17 -8 17 -16 0 -9 -6 -12 -17
-8 -17 5 -17 5 -2 -8 9 -8 19 -21 21 -29 3 -8 7 6 9 33 2 26 2 47 -1 46 -3 0
-14 -4 -25 -9z"/>
<path d="M7245 12706 c-17 -12 -16 -14 13 -18 18 -2 32 -3 32 -2 0 10 -13 34
-19 34 -4 0 -16 -6 -26 -14z"/>
<path d="M6978 12703 c7 -3 16 -2 19 1 4 3 -2 6 -13 5 -11 0 -14 -3 -6 -6z"/>
<path d="M7070 12685 c0 -8 5 -15 10 -15 6 0 10 7 10 15 0 8 -4 15 -10 15 -5
0 -10 -7 -10 -15z"/>
<path d="M6760 12661 c0 -6 4 -13 10 -16 6 -3 7 1 4 9 -7 18 -14 21 -14 7z"/>
<path d="M7005 12660 c-4 -6 3 -10 14 -10 25 0 27 6 6 13 -8 4 -17 2 -20 -3z"/>
<path d="M6890 12650 c-18 -12 -2 -12 25 0 13 6 15 9 5 9 -8 0 -22 -4 -30 -9z"/>
<path d="M7070 12650 c0 -5 5 -10 10 -10 6 0 10 5 10 10 0 6 -4 10 -10 10 -5
0 -10 -4 -10 -10z"/>
<path d="M6953 12643 c9 -2 23 -2 30 0 6 3 -1 5 -18 5 -16 0 -22 -2 -12 -5z"/>
<path d="M6870 12621 c0 -5 5 -13 10 -16 6 -3 10 -2 10 4 0 5 -4 13 -10 16 -5
3 -10 2 -10 -4z"/>
<path d="M7120 12603 c0 -7 -5 -13 -10 -13 -6 0 -5 -8 2 -19 7 -11 16 -17 20
-14 5 2 4 11 -3 19 -10 12 -8 16 9 21 28 7 29 19 2 19 -11 0 -20 -6 -20 -13z"/>
<path d="M6970 12599 c0 -4 11 -6 25 -6 14 0 25 3 25 8 0 5 -11 8 -25 7 -14
-1 -25 -5 -25 -9z"/>
<path d="M7023 12583 c-13 -2 -23 -9 -23 -14 0 -11 39 -2 55 12 9 9 7 10 -32
2z"/>
<path d="M6850 12570 c0 -5 5 -10 10 -10 6 0 10 5 10 10 0 6 -4 10 -10 10 -5
0 -10 -4 -10 -10z"/>
<path d="M6960 12576 c0 -2 6 -9 13 -15 10 -8 14 -7 14 4 0 8 -6 15 -14 15 -7
0 -13 -2 -13 -4z"/>
<path d="M6810 12563 c0 -5 5 -15 10 -23 8 -12 10 -11 10 8 0 12 -4 22 -10 22
-5 0 -10 -3 -10 -7z"/>
<path d="M6710 12520 c0 -33 -4 -42 -22 -50 -18 -7 -19 -9 -5 -9 9 -1 17 -6
17 -12 0 -8 -11 -9 -32 -5 -27 4 -29 4 -15 -5 10 -6 30 -8 44 -4 20 5 23 8 13
20 -8 9 -8 15 -2 15 5 0 12 20 14 45 2 25 0 45 -4 45 -5 0 -8 -18 -8 -40z"/>
<path d="M7030 12545 c10 -12 7 -15 -13 -21 -16 -3 -24 -11 -21 -19 3 -8 -3
-15 -15 -17 -16 -2 -18 -6 -10 -18 8 -11 12 -12 16 -2 2 6 9 12 14 12 5 0 6
-7 0 -17 -25 -50 -34 -73 -29 -78 3 -3 23 -1 44 4 21 5 33 9 27 10 -15 1 21
41 37 41 13 0 12 11 -4 33 -14 17 -36 23 -36 9 0 -4 6 -14 12 -20 10 -10 10
-15 -2 -22 -20 -13 -40 -13 -40 0 0 6 7 10 15 10 13 0 14 4 5 20 -9 16 -7 24
5 37 9 8 14 22 11 30 -3 8 -6 17 -6 19 0 2 -5 4 -11 4 -8 0 -8 -4 1 -15z m-20
-135 c0 -5 -4 -10 -10 -10 -5 0 -10 5 -10 10 0 6 5 10 10 10 6 0 10 -4 10 -10z"/>
<path d="M7070 12531 c0 -12 5 -21 10 -21 6 0 10 6 10 14 0 8 -4 18 -10 21 -5
3 -10 -3 -10 -14z"/>
<path d="M6776 12521 c-4 -7 -5 -15 -2 -18 9 -9 19 4 14 18 -4 11 -6 11 -12 0z"/>
<path d="M6850 12490 c0 -5 5 -10 10 -10 6 0 10 5 10 10 0 6 -4 10 -10 10 -5
0 -10 -4 -10 -10z"/>
<path d="M6600 12480 c-8 -5 -12 -12 -9 -15 4 -3 12 1 19 10 14 17 11 19 -10
5z"/>
<path d="M6785 12470 c3 -5 8 -10 11 -10 2 0 4 5 4 10 0 6 -5 10 -11 10 -5 0
-7 -4 -4 -10z"/>
<path d="M6887 12464 c4 -12 3 -15 -5 -10 -8 5 -12 -1 -12 -16 0 -24 20 -64
20 -40 0 18 28 15 39 -5 8 -15 12 -16 22 -5 7 6 10 12 6 12 -4 0 -3 9 3 20 13
25 -3 60 -28 60 -13 0 -12 -3 6 -16 12 -8 22 -21 22 -27 0 -8 -3 -8 -8 -2 -4
6 -22 18 -39 28 -30 17 -32 17 -26 1z m33 -24 c0 -5 7 -10 15 -10 8 0 15 -4
15 -10 0 -15 -19 -12 -36 4 -16 17 -18 26 -4 26 6 0 10 -4 10 -10z"/>
<path d="M6815 12400 c-3 -5 -1 -10 4 -10 6 0 11 5 11 10 0 6 -2 10 -4 10 -3
0 -8 -4 -11 -10z"/>
<path d="M6658 12393 c7 -3 16 -2 19 1 4 3 -2 6 -13 5 -11 0 -14 -3 -6 -6z"/>
<path d="M6850 12386 c0 -9 5 -16 10 -16 6 0 10 4 10 9 0 6 -4 13 -10 16 -5 3
-10 -1 -10 -9z"/>
<path d="M6945 12340 c3 -5 8 -10 11 -10 2 0 4 5 4 10 0 6 -5 10 -11 10 -5 0
-7 -4 -4 -10z"/>
<path d="M6640 12329 c0 -5 5 -7 10 -4 6 3 10 8 10 11 0 2 -4 4 -10 4 -5 0
-10 -5 -10 -11z"/>
<path d="M6517 12299 c4 -13 8 -18 11 -10 2 7 -1 18 -6 23 -8 8 -9 4 -5 -13z"/>
<path d="M6542 12295 c0 -16 2 -22 5 -12 2 9 2 23 0 30 -3 6 -5 -1 -5 -18z"/>
<path d="M6723 12273 c1 -29 4 -47 8 -40 4 6 3 30 -1 52 -8 39 -8 39 -7 -12z"/>
<path d="M6746 12285 c6 -39 11 -52 17 -44 2 2 -2 22 -10 44 l-13 40 6 -40z"/>
<path d="M6622 12265 c0 -16 2 -22 5 -12 2 9 2 23 0 30 -3 6 -5 -1 -5 -18z"/>
<path d="M6491 12264 c0 -11 3 -14 6 -6 3 7 2 16 -1 19 -3 4 -6 -2 -5 -13z"/>
<path d="M6782 12260 c0 -14 2 -19 5 -12 2 6 2 18 0 25 -3 6 -5 1 -5 -13z"/>
<path d="M6276 12237 c3 -10 9 -15 12 -12 3 3 0 11 -7 18 -10 9 -11 8 -5 -6z"/>
<path d="M6740 12194 c0 -8 5 -12 10 -9 6 4 8 11 5 16 -9 14 -15 11 -15 -7z"/>
<path d="M6648 12193 c6 -2 18 -2 25 0 6 3 1 5 -13 5 -14 0 -19 -2 -12 -5z"/>
<path d="M6745 12126 c-21 -25 -25 -27 -20 -9 3 12 1 24 -4 28 -7 4 -9 -5 -7
-24 2 -17 -1 -31 -5 -31 -12 0 -11 -47 1 -55 6 -3 10 -13 10 -22 0 -13 -3 -13
-15 -3 -8 7 -15 19 -15 27 0 14 -23 43 -34 43 -3 0 5 -20 19 -44 17 -31 21
-46 13 -54 -8 -8 -6 -15 6 -28 9 -9 20 -13 24 -10 3 4 0 11 -8 17 -13 8 -13
11 3 23 20 15 26 103 5 90 -7 -5 -8 -3 -3 5 4 8 18 10 34 7 14 -3 20 -3 14 0
-15 6 -18 34 -4 34 5 0 11 -6 14 -12 2 -8 8 -9 13 -4 5 5 4 11 -3 13 -20 7
-15 24 5 21 9 -2 23 -15 31 -30 13 -28 31 -38 31 -18 0 6 -4 10 -10 10 -5 0
-10 7 -10 16 0 20 -20 39 -42 40 -10 1 -29 -12 -43 -30z"/>
<path d="M6670 12130 c0 -5 5 -10 11 -10 5 0 7 5 4 10 -3 6 -8 10 -11 10 -2 0
-4 -4 -4 -10z"/>
<path d="M6610 12116 c0 -2 9 -6 20 -9 11 -3 20 -1 20 4 0 5 -9 9 -20 9 -11 0
-20 -2 -20 -4z"/>
<path d="M6560 12042 l5 -47 3 39 c2 21 0 42 -5 47 -4 4 -6 -13 -3 -39z"/>
<path d="M6750 12025 c0 -14 5 -25 10 -25 6 0 10 11 10 25 0 14 -4 25 -10 25
-5 0 -10 -11 -10 -25z"/>
<path d="M6380 12031 c0 -5 -8 -12 -17 -14 -15 -4 -15 -5 -2 -6 9 0 22 6 29
14 9 10 9 15 1 15 -6 0 -11 -4 -11 -9z"/>
<path d="M6645 12000 c-3 -6 1 -7 9 -4 18 7 21 14 7 14 -6 0 -13 -4 -16 -10z"/>
<path d="M6438 11983 c7 -3 16 -2 19 1 4 3 -2 6 -13 5 -11 0 -14 -3 -6 -6z"/>
<path d="M6430 11960 c-8 -5 -10 -10 -5 -10 6 0 17 5 25 10 8 5 11 10 5 10 -5
0 -17 -5 -25 -10z"/>
<path d="M6632 11944 c-8 -9 -22 -12 -33 -9 -11 4 -19 2 -19 -4 0 -6 -4 -11
-10 -11 -5 0 -10 8 -10 17 0 14 -2 15 -12 4 -10 -10 -10 -15 -1 -18 7 -2 9
-12 6 -21 -6 -15 -4 -15 10 -4 9 8 32 12 53 10 32 -2 38 0 40 19 5 28 -7 35
-24 17z"/>
<path d="M6390 11932 c0 -6 -8 -13 -17 -15 -16 -4 -16 -5 -1 -6 18 -1 34 16
24 26 -3 4 -6 1 -6 -5z"/>
<path d="M6675 11900 c-4 -17 -5 -33 -3 -35 9 -9 28 13 30 34 4 36 -19 37 -27
1z"/>
<path d="M6471 11904 c0 -11 3 -14 6 -6 3 7 2 16 -1 19 -3 4 -6 -2 -5 -13z"/>
<path d="M6490 11909 c0 -5 5 -7 10 -4 6 3 10 8 10 11 0 2 -4 4 -10 4 -5 0
-10 -5 -10 -11z"/>
<path d="M6520 11911 c0 -6 5 -13 10 -16 6 -3 10 1 10 9 0 9 -4 16 -10 16 -5
0 -10 -4 -10 -9z"/>
<path d="M6720 11879 c0 -5 5 -7 10 -4 6 3 10 8 10 11 0 2 -4 4 -10 4 -5 0
-10 -5 -10 -11z"/>
<path d="M6620 11861 c0 -14 28 -33 42 -28 8 4 7 6 -4 6 -10 1 -18 8 -18 16 0
8 -4 15 -10 15 -5 0 -10 -4 -10 -9z"/>
<path d="M6556 11831 c-7 -10 22 -37 30 -28 4 3 -1 13 -9 22 -9 8 -18 11 -21
6z"/>
<path d="M6606 11815 c4 -18 2 -30 -7 -36 -7 -4 -10 -11 -7 -15 9 -8 38 20 38
36 0 6 -7 18 -15 27 -14 14 -15 13 -9 -12z"/>
<path d="M6480 11824 c0 -10 28 -34 39 -34 6 0 11 5 11 10 0 6 -7 10 -15 10
-8 0 -15 5 -15 10 0 6 -4 10 -10 10 -5 0 -10 -3 -10 -6z"/>
<path d="M6322 11790 c0 -19 2 -27 5 -17 2 9 2 25 0 35 -3 9 -5 1 -5 -18z"/>
<path d="M6650 11810 c0 -5 5 -10 11 -10 5 0 7 5 4 10 -3 6 -8 10 -11 10 -2 0
-4 -4 -4 -10z"/>
<path d="M6348 11785 c-3 -14 -1 -25 3 -25 5 0 9 11 9 25 0 14 -2 25 -4 25 -2
0 -6 -11 -8 -25z"/>
<path d="M6555 11770 c3 -5 11 -10 16 -10 6 0 7 5 4 10 -3 6 -11 10 -16 10 -6
0 -7 -4 -4 -10z"/>
<path d="M6656 11765 c4 -8 2 -15 -4 -15 -6 0 -13 6 -15 13 -4 9 -6 9 -6 -1
-1 -7 6 -15 14 -18 8 -4 15 -11 15 -16 0 -6 -7 -8 -14 -5 -10 4 -13 1 -10 -7
4 -11 10 -11 30 -2 22 10 22 12 7 24 -15 11 -15 12 3 12 11 0 25 -5 32 -12 9
-9 12 -8 12 5 0 12 -8 17 -26 17 -14 0 -23 4 -19 10 3 6 -1 10 -9 10 -10 0
-13 -6 -10 -15z"/>
<path d="M6518 11763 c7 -3 16 -2 19 1 4 3 -2 6 -13 5 -11 0 -14 -3 -6 -6z"/>
<path d="M6737 11753 c-11 -10 -8 -51 3 -58 16 -10 2 -25 -23 -25 -18 0 -19
-2 -7 -10 8 -5 30 -10 48 -10 28 0 32 -3 27 -19 -3 -11 0 -21 8 -24 22 -8 8
41 -19 70 -26 29 -30 53 -12 71 9 9 9 12 -3 12 -9 0 -19 -3 -22 -7z"/>
<path d="M6475 11739 c-4 -6 -5 -12 -2 -15 2 -3 7 2 10 11 7 17 1 20 -8 4z"/>
<path d="M6540 11741 c0 -5 -10 -12 -22 -16 -20 -6 -20 -8 -6 -12 10 -2 25 2
33 11 17 17 19 26 5 26 -5 0 -10 -4 -10 -9z"/>
<path d="M6570 11740 c0 -5 5 -10 10 -10 6 0 10 5 10 10 0 6 -4 10 -10 10 -5
0 -10 -4 -10 -10z"/>
<path d="M6770 11721 c0 -10 7 -24 15 -31 16 -13 18 -8 9 28 -8 27 -24 29 -24
3z"/>
<path d="M6540 11694 l-25 -15 25 7 c28 7 35 12 29 18 -2 2 -15 -2 -29 -10z"/>
<path d="M6680 11690 c8 -5 22 -10 30 -10 13 0 13 1 0 10 -8 5 -22 10 -30 10
-13 0 -13 -1 0 -10z"/>
<path d="M6640 11680 c0 -5 5 -10 11 -10 5 0 7 5 4 10 -3 6 -8 10 -11 10 -2 0
-4 -4 -4 -10z"/>
<path d="M6572 11668 c-7 -7 -12 -16 -12 -20 0 -15 15 -8 28 12 13 22 3 27
-16 8z"/>
<path d="M6525 11660 c3 -5 8 -10 11 -10 2 0 4 5 4 10 0 6 -5 10 -11 10 -5 0
-7 -4 -4 -10z"/>
<path d="M6607 11643 c-4 -7 -2 -21 5 -33 14 -21 28 -27 28 -10 0 6 8 10 18
10 14 0 15 2 2 10 -10 6 -16 6 -18 0 -6 -18 -21 -10 -24 13 -2 15 -6 18 -11
10z"/>
<path d="M6440 11629 c0 -5 5 -7 10 -4 6 3 10 8 10 11 0 2 -4 4 -10 4 -5 0
-10 -5 -10 -11z"/>
<path d="M6690 11630 c0 -5 9 -10 21 -10 11 0 17 5 14 10 -3 6 -13 10 -21 10
-8 0 -14 -4 -14 -10z"/>
<path d="M6827 11620 c-3 -13 0 -20 9 -20 8 0 13 5 12 11 -2 6 2 13 8 16 13 4
24 -27 24 -72 1 -32 20 -65 38 -65 6 0 9 12 8 28 -5 39 -5 39 -21 18 -14 -19
-15 -19 -15 6 0 15 5 30 10 33 6 3 10 1 10 -5 0 -6 4 -9 10 -5 15 9 -1 35 -22
35 -16 0 -18 3 -9 14 9 11 8 15 -5 20 -30 11 -52 6 -57 -14z"/>
<path d="M6525 11620 c-3 -5 -1 -10 4 -10 6 0 11 5 11 10 0 6 -2 10 -4 10 -3
0 -8 -4 -11 -10z"/>
<path d="M6396 11602 c-3 -5 1 -9 9 -9 8 0 12 4 9 9 -3 4 -7 8 -9 8 -2 0 -6
-4 -9 -8z"/>
<path d="M6708 11598 c16 -16 15 -38 -2 -38 -7 0 -16 -11 -18 -25 -9 -43 9
-37 32 12 17 37 19 48 8 54 -20 13 -34 11 -20 -3z"/>
<path d="M6656 11585 c-3 -9 0 -15 9 -15 8 0 15 7 15 15 0 8 -4 15 -9 15 -5 0
-11 -7 -15 -15z"/>
<path d="M6760 11575 c0 -18 5 -25 19 -25 14 0 17 6 13 25 -2 14 -11 25 -18
25 -8 0 -14 -10 -14 -25z"/>
<path d="M6525 11570 c-3 -5 1 -10 10 -10 9 0 13 5 10 10 -3 6 -8 10 -10 10
-2 0 -7 -4 -10 -10z"/>
<path d="M6415 11530 c3 -5 8 -10 11 -10 2 0 4 5 4 10 0 6 -5 10 -11 10 -5 0
-7 -4 -4 -10z"/>
<path d="M6465 11520 c3 -5 8 -10 11 -10 2 0 4 5 4 10 0 6 -5 10 -11 10 -5 0
-7 -4 -4 -10z"/>
<path d="M6808 11513 c7 -3 16 -2 19 1 4 3 -2 6 -13 5 -11 0 -14 -3 -6 -6z"/>
<path d="M7073 11508 c-34 -54 -38 -83 -8 -58 9 7 19 10 22 6 4 -4 1 -11 -7
-16 -12 -8 -12 -10 -1 -10 7 0 22 -9 31 -20 10 -12 21 -17 24 -11 8 12 -3 41
-15 41 -5 0 -9 4 -9 9 0 18 38 -1 49 -25 14 -31 27 -31 33 0 4 18 -1 27 -19
35 -13 6 -30 11 -38 11 -7 0 -16 10 -18 23 l-4 22 -2 -22 c0 -13 -8 -23 -16
-23 -11 0 -14 7 -9 25 7 27 0 33 -13 13z"/>
<path d="M6580 11501 c0 -5 6 -12 13 -14 9 -4 8 -8 -3 -16 -18 -13 -1 -14 19
-2 12 8 12 12 -2 25 -18 18 -27 20 -27 7z"/>
<path d="M6756 11489 c7 -8 14 -23 17 -34 4 -13 5 -9 4 9 -1 16 -9 32 -17 34
-12 4 -13 2 -4 -9z"/>
<path d="M7173 11493 c-21 -8 -15 -20 12 -25 30 -6 39 1 24 19 -12 14 -16 15
-36 6z"/>
<path d="M6721 11474 c0 -11 3 -14 6 -6 3 7 2 16 -1 19 -3 4 -6 -2 -5 -13z"/>
<path d="M6880 11461 c0 -5 -11 -12 -25 -15 -14 -4 -25 -11 -25 -17 0 -8 5 -8
15 1 8 6 24 9 37 6 13 -3 18 -3 11 0 -7 3 -9 12 -6 20 3 8 2 14 -1 14 -3 0 -6
-4 -6 -9z"/>
<path d="M6600 11441 c0 -6 5 -13 10 -16 6 -3 10 1 10 9 0 9 -4 16 -10 16 -5
0 -10 -4 -10 -9z"/>
<path d="M7040 11421 c0 -12 39 -25 47 -17 4 3 -1 6 -10 6 -9 0 -17 5 -17 10
0 6 -4 10 -10 10 -5 0 -10 -4 -10 -9z"/>
<path d="M6892 11389 c2 -6 8 -10 13 -10 5 0 11 4 13 10 2 6 -4 11 -13 11 -9
0 -15 -5 -13 -11z"/>
<path d="M6960 11356 c0 -9 30 -14 35 -6 4 6 -3 10 -14 10 -12 0 -21 -2 -21
-4z"/>
<path d="M7043 11353 c9 -2 23 -2 30 0 6 3 -1 5 -18 5 -16 0 -22 -2 -12 -5z"/>
<path d="M7125 11330 c0 -17 4 -26 12 -23 20 8 23 32 5 42 -14 7 -17 4 -17
-19z"/>
<path d="M7165 11350 c4 -6 11 -8 16 -5 14 9 11 15 -7 15 -8 0 -12 -5 -9 -10z"/>
<path d="M7469 11258 c5 -32 6 -32 9 -5 5 41 22 32 22 -12 0 -41 13 -60 26
-40 4 7 3 9 -4 5 -7 -4 -12 8 -14 36 -2 35 -7 44 -24 46 -18 3 -20 -1 -15 -30z"/>
<path d="M7026 11267 c3 -10 9 -15 12 -12 3 3 0 11 -7 18 -10 9 -11 8 -5 -6z"/>
<path d="M7830 11220 c0 -13 5 -18 15 -14 8 4 15 10 15 14 0 4 -7 10 -15 14
-10 4 -15 -1 -15 -14z"/>
<path d="M7600 11215 c0 -5 5 -17 10 -25 5 -8 10 -10 10 -5 0 6 -5 17 -10 25
-5 8 -10 11 -10 5z"/>
<path d="M8000 11160 c0 -5 5 -10 11 -10 5 0 7 5 4 10 -3 6 -8 10 -11 10 -2 0
-4 -4 -4 -10z"/>
<path d="M8100 11150 c0 -5 5 -10 10 -10 6 0 10 5 10 10 0 6 -4 10 -10 10 -5
0 -10 -4 -10 -10z"/>
<path d="M8151 11144 c0 -11 3 -14 6 -6 3 7 2 16 -1 19 -3 4 -6 -2 -5 -13z"/>
<path d="M8065 11140 c3 -5 8 -10 11 -10 2 0 4 5 4 10 0 6 -5 10 -11 10 -5 0
-7 -4 -4 -10z"/>
<path d="M8205 11130 c-3 -5 0 -10 7 -10 9 0 9 -3 -2 -10 -11 -8 -9 -9 13 -8
31 3 32 4 13 24 -17 17 -23 17 -31 4z"/>
<path d="M8130 11124 c0 -11 29 -34 34 -26 2 4 -4 13 -15 20 -10 7 -19 10 -19
6z"/>
<path d="M8338 11063 c12 -2 32 -2 45 0 12 2 2 4 -23 4 -25 0 -35 -2 -22 -4z"/>
<path d="M8520 11051 c0 -5 12 -11 27 -14 26 -5 26 -4 8 9 -22 16 -35 18 -35
5z"/>
<path d="M8428 11043 c6 -2 18 -2 25 0 6 3 1 5 -13 5 -14 0 -19 -2 -12 -5z"/>
<path d="M8560 11010 c0 -5 5 -10 11 -10 5 0 7 5 4 10 -3 6 -8 10 -11 10 -2 0
-4 -4 -4 -10z"/>
<path d="M0 10952 c0 -33 8 -45 65 -102 35 -35 68 -60 72 -56 4 4 13 -39 20
-96 9 -84 32 -256 67 -508 3 -19 12 -89 21 -155 8 -66 24 -181 34 -255 11 -74
25 -174 31 -222 7 -49 14 -88 17 -88 7 0 -3 104 -21 210 -8 52 -18 124 -22
160 -3 36 -7 69 -8 75 0 5 8 9 19 9 20 1 23 -12 12 -59 -2 -11 -2 -14 0 -7 3
10 8 10 18 2 9 -8 14 -6 19 6 5 12 2 15 -10 10 -12 -4 -14 -1 -9 14 7 23 -12
63 -27 54 -7 -4 -8 3 -4 22 7 36 -19 119 -28 88 -3 -10 -3 -5 0 11 11 59 12
105 2 99 -5 -3 -7 -17 -4 -30 4 -13 2 -24 -2 -24 -11 0 -20 79 -17 142 1 26
-2 45 -6 42 -5 -3 -9 0 -9 5 0 6 5 11 10 11 7 0 8 14 4 38 -4 20 -8 57 -9 82
-4 78 -4 77 -15 60 -7 -11 -10 -7 -10 18 0 17 5 32 10 32 6 0 10 -7 10 -17 0
-9 3 -14 6 -10 3 3 -3 32 -15 63 -20 56 -20 85 -1 54 13 -21 12 -7 -2 27 -6
15 -10 32 -9 37 1 4 -3 14 -9 20 -5 7 -6 17 -2 21 4 5 -1 5 -12 1 -14 -5 -17
-2 -12 9 3 8 0 28 -6 43 -6 15 -10 33 -9 39 1 10 -145 163 -156 163 -2 0 -3
-17 -3 -38z m195 -251 c3 -5 1 -12 -5 -16 -5 -3 -10 1 -10 9 0 18 6 21 15 7z
m14 -133 c1 -5 -3 -8 -9 -8 -5 0 -10 12 -9 28 0 24 1 25 9 7 5 -11 9 -23 9
-27z m72 -568 c5 -3 4 -19 0 -35 -10 -33 -12 -30 -16 30 -2 22 -1 33 3 25 3
-8 9 -17 13 -20z"/>
<path d="M8990 10940 c0 -11 5 -20 10 -20 6 0 10 9 10 20 0 11 -4 20 -10 20
-5 0 -10 -9 -10 -20z"/>
<path d="M8856 10941 c-3 -5 2 -12 11 -15 15 -6 15 -8 3 -16 -9 -6 -10 -10 -3
-10 17 0 24 15 17 34 -7 18 -20 21 -28 7z"/>
<path d="M8790 10918 c0 -12 7 -18 23 -17 15 0 17 2 7 6 -8 3 -18 11 -22 17
-5 7 -8 4 -8 -6z"/>
<path d="M7787 10723 c18 -2 50 -2 70 0 21 2 7 4 -32 4 -38 0 -55 -2 -38 -4z"/>
<path d="M8018 10723 c7 -3 16 -2 19 1 4 3 -2 6 -13 5 -11 0 -14 -3 -6 -6z"/>
<path d="M8448 10713 c6 -2 18 -2 25 0 6 3 1 5 -13 5 -14 0 -19 -2 -12 -5z"/>
<path d="M9135 10710 c3 -5 18 -10 32 -10 32 0 28 5 -10 14 -19 4 -26 3 -22
-4z"/>
<path d="M8998 10703 c7 -3 16 -2 19 1 4 3 -2 6 -13 5 -11 0 -14 -3 -6 -6z"/>
<path d="M9083 10703 c9 -2 23 -2 30 0 6 3 -1 5 -18 5 -16 0 -22 -2 -12 -5z"/>
<path d="M252 10445 c0 -16 2 -22 5 -12 2 9 2 23 0 30 -3 6 -5 -1 -5 -18z"/>
<path d="M270 10265 c7 -8 17 -15 22 -15 6 0 5 7 -2 15 -7 8 -17 15 -22 15 -6
0 -5 -7 2 -15z"/>
<path d="M250 10195 c0 -8 5 -15 10 -15 6 0 10 7 10 15 0 8 -4 15 -10 15 -5 0
-10 -7 -10 -15z"/>
<path d="M5950 10144 c-30 -7 -47 -13 -38 -13 11 -1 15 -6 12 -16 -4 -8 1 -17
9 -21 9 -3 13 -12 10 -20 -3 -9 -12 -13 -19 -10 -22 9 -42 -4 -48 -30 -4 -13
-11 -24 -16 -24 -13 0 -13 6 6 42 12 23 13 29 2 25 -7 -2 -20 -1 -28 3 -21 11
-80 -15 -80 -35 0 -20 -21 -43 -35 -39 -6 2 -19 -8 -29 -23 -15 -20 -17 -30
-8 -43 5 -9 12 -37 13 -61 2 -32 11 -52 31 -72 15 -16 28 -34 28 -41 0 -7 18
-30 40 -52 21 -21 42 -49 45 -61 3 -12 14 -25 26 -28 20 -7 21 -12 17 -173 -3
-152 -5 -169 -23 -184 -11 -10 -24 -17 -30 -18 -6 0 -10 52 -10 137 l0 136
-100 23 c-55 13 -138 32 -184 44 -46 12 -85 20 -86 18 -2 -2 -7 -145 -11 -319
l-7 -316 48 -6 c26 -4 104 -7 172 -7 l125 0 -7 78 -7 79 34 16 c36 18 25 23
-16 7 -24 -9 -26 -7 -26 19 0 16 6 34 14 40 21 17 108 40 139 36 19 -2 27 1
27 12 0 9 6 13 15 9 8 -3 15 -1 15 4 0 14 -44 12 -58 -2 -9 -9 -12 -8 -12 5 0
9 4 17 9 17 5 0 9 35 9 78 -1 42 0 112 1 155 1 76 2 77 22 66 12 -6 29 -9 40
-6 17 5 18 -5 21 -145 2 -111 0 -152 -9 -155 -7 -3 -15 -13 -18 -24 -4 -11
-12 -17 -18 -13 -7 3 -3 -2 7 -10 11 -9 26 -16 33 -16 7 0 13 -7 13 -15 0 -8
-5 -15 -12 -15 -6 0 -3 -6 7 -14 16 -11 9 -13 -51 -10 -62 3 -64 2 -26 -6 23
-5 47 -12 52 -15 12 -7 11 -118 -1 -151 -10 -28 9 -34 120 -34 75 0 82 2 76
18 -4 9 -10 40 -13 67 -5 48 -26 77 -57 81 -5 0 -18 2 -27 2 -12 2 -15 8 -12
25 14 62 13 79 -1 73 -8 -3 -17 -1 -20 4 -4 6 2 10 12 10 15 0 14 2 -5 16 -22
15 -23 21 -21 160 0 80 5 147 11 150 5 3 31 7 58 9 61 3 112 32 124 71 18 60
18 60 23 46 4 -10 11 -8 29 9 26 24 31 58 12 77 -8 8 -8 15 1 25 8 10 8 22 2
39 -10 25 -105 128 -119 128 -5 0 -19 20 -32 45 -13 25 -27 45 -32 45 -20 0
-23 -2 -20 -17 2 -9 -2 -13 -10 -10 -7 2 -12 9 -11 15 4 18 -27 83 -42 88 -8
4 -13 10 -10 14 9 15 -9 16 -65 4z m66 -1131 c-10 -10 -19 5 -10 18 6 11 8 11
12 0 2 -7 1 -15 -2 -18z"/>
<path d="M310 9823 c0 -4 5 -15 10 -23 8 -13 10 -13 10 2 0 9 -4 20 -10 23 -5
3 -10 3 -10 -2z"/>
<path d="M317 9765 c3 -8 9 -12 14 -9 12 7 11 11 -5 17 -10 4 -13 1 -9 -8z"/>
<path d="M320 9730 c0 -5 5 -10 10 -10 6 0 10 5 10 10 0 6 -4 10 -10 10 -5 0
-10 -4 -10 -10z"/>
<path d="M325 9690 c3 -5 11 -10 16 -10 6 0 7 5 4 10 -3 6 -11 10 -16 10 -6 0
-7 -4 -4 -10z"/>
<path d="M330 9650 c0 -5 5 -10 11 -10 5 0 7 5 4 10 -3 6 -8 10 -11 10 -2 0
-4 -4 -4 -10z"/>
<path d="M340 9586 c0 -9 5 -16 10 -16 6 0 10 4 10 9 0 6 -4 13 -10 16 -5 3
-10 -1 -10 -9z"/>
<path d="M359 9457 c6 -8 8 -17 4 -20 -3 -4 -1 -7 5 -7 14 0 14 2 6 24 -3 9
-11 16 -16 16 -7 0 -6 -5 1 -13z"/>
<path d="M337 9380 c3 -36 7 -67 9 -69 7 -8 2 73 -6 104 -5 19 -6 6 -3 -35z"/>
<path d="M372 9394 c-7 -8 -10 -20 -5 -27 4 -6 8 -19 9 -27 3 -45 5 -51 13
-46 5 3 5 21 1 41 -4 20 -6 44 -3 55 6 24 3 25 -15 4z"/>
<path d="M6435 9365 c-22 -8 -41 -15 -42 -15 -1 0 -6 -15 -11 -32 -8 -32 -10
-33 -63 -33 -57 -1 -83 -11 -112 -42 -16 -19 -16 -20 0 -20 10 0 25 5 33 12
27 22 58 26 93 11 l35 -14 -10 -49 c-5 -26 -9 -61 -10 -76 -1 -15 -5 -30 -9
-33 -5 -3 -6 3 -3 13 5 16 4 16 -10 -2 -18 -21 -36 -78 -36 -112 0 -41 28 -26
38 20 l10 42 1 -41 c1 -33 5 -43 22 -47 14 -4 23 1 29 16 6 15 9 17 9 6 1 -21
46 -22 62 -3 8 10 8 14 0 14 -6 0 -10 3 -10 8 4 22 -2 52 -10 52 -5 0 -12 -10
-14 -22 -2 -13 -5 -4 -6 20 0 24 3 41 8 37 15 -9 22 12 26 72 2 31 9 60 17 65
10 7 9 8 -4 4 -29 -9 -29 10 -1 23 19 9 23 15 14 20 -7 5 -10 18 -6 37 21 94
23 91 -40 69z m-25 -125 c0 -11 -4 -20 -9 -20 -5 0 -11 9 -14 20 -3 13 0 20 9
20 8 0 14 -9 14 -20z m9 -37 c0 -5 -4 -17 -9 -28 -8 -18 -9 -17 -9 8 -1 15 4
27 9 27 6 0 10 -3 9 -7z m-13 -143 c1 -38 -3 -70 -8 -70 -9 0 -11 100 -2 124
3 9 7 16 8 16 1 0 2 -31 2 -70z"/>
<path d="M6542 9318 c2 -35 7 -66 11 -69 4 -3 4 -16 -1 -29 -5 -13 -5 -43 -1
-67 11 -55 4 -150 -12 -169 -8 -10 -8 -14 0 -14 6 0 11 -7 11 -15 0 -12 16
-15 88 -15 l87 0 4 148 c2 82 8 150 13 153 9 6 6 40 -8 91 -8 27 -67 48 -134
48 l-62 0 4 -62z"/>
<path d="M351 9290 c-1 -16 28 -281 35 -317 3 -15 20 -30 47 -43 40 -20 41
-20 19 -1 -15 13 -18 21 -10 24 10 4 10 6 1 6 -15 1 -18 41 -3 41 14 0 12 16
-5 33 -8 8 -11 18 -7 22 4 5 -3 6 -14 3 -20 -5 -22 0 -33 86 -13 97 -28 171
-30 146z"/>
<path d="M380 9239 c0 -16 4 -28 9 -25 8 5 3 56 -5 56 -2 0 -4 -14 -4 -31z"/>
<path d="M6755 9083 l0 -143 50 -1 c48 -1 78 1 82 5 7 6 -18 216 -27 238 -9
18 -23 27 -58 34 l-47 9 0 -142z"/>
<path d="M395 9200 c-3 -5 1 -10 10 -10 9 0 13 5 10 10 -3 6 -8 10 -10 10 -2
0 -7 -4 -10 -10z"/>
<path d="M6196 9179 c-10 -49 -7 -229 3 -229 25 0 32 79 10 106 -8 10 -10 37
-5 84 6 73 3 92 -8 39z"/>
<path d="M400 9090 c0 -5 7 -10 15 -10 8 0 15 5 15 10 0 6 -7 10 -15 10 -8 0
-15 -4 -15 -10z"/>
<path d="M9583 8885 l7 -105 -88 0 c-48 0 -204 4 -347 10 -143 5 -442 14 -665
20 -1132 31 -1435 39 -1436 37 -5 -5 -64 -2406 -64 -2592 l0 -56 -125 5 c-69
2 -125 3 -125 2 0 -6 568 -567 593 -587 30 -23 92 -36 101 -21 3 5 8 164 11
353 24 1463 35 2090 40 2174 1 22 2 80 3 129 l2 89 278 -6 c529 -12 1038 -27
1272 -37 129 -5 308 -13 398 -16 l162 -7 0 357 c0 262 -3 356 -12 356 -8 0 -9
-29 -5 -105z"/>
<path d="M4843 8973 c-24 -5 -30 -18 -13 -28 17 -10 11 -23 -14 -29 -13 -3
-51 3 -86 15 -57 18 -64 19 -86 4 -13 -8 -24 -22 -24 -29 0 -9 -17 -16 -47
-21 -26 -4 -70 -15 -98 -26 -58 -22 -179 -110 -203 -148 -9 -14 -19 -28 -22
-31 -3 -3 -13 -22 -23 -44 -20 -43 -77 -116 -91 -116 -6 0 5 15 23 34 21 21
30 39 26 47 -6 8 -4 10 5 4 8 -5 11 -3 8 6 -3 8 1 22 10 32 10 11 11 17 3 17
-6 0 -41 -30 -77 -67 -36 -38 -62 -61 -59 -53 4 8 -13 -7 -39 -35 -25 -27 -51
-66 -57 -85 -7 -19 -25 -55 -40 -80 -42 -69 -52 -123 -40 -214 6 -42 18 -91
27 -109 34 -65 87 -137 101 -137 9 0 28 -11 45 -25 16 -14 38 -25 49 -25 10 0
19 -4 19 -9 0 -5 7 -17 16 -26 22 -21 25 -90 7 -133 -8 -19 -16 -47 -18 -63
-3 -29 -3 -29 20 -11 26 19 35 41 35 87 0 54 42 213 55 208 19 -7 28 42 31
157 3 128 25 205 96 334 65 118 100 160 156 193 44 26 53 27 177 27 71 0 141
-4 154 -8 17 -7 22 -6 17 2 -9 15 5 15 114 2 115 -15 158 -27 186 -55 12 -12
25 -20 28 -17 10 9 6 -62 -4 -78 -5 -9 -5 -19 1 -26 6 -8 2 -17 -15 -28 -14
-9 -30 -16 -36 -16 -5 0 -10 -7 -10 -15 0 -8 -4 -15 -10 -15 -5 0 -7 -27 -5
-66 3 -49 1 -70 -10 -81 -8 -8 -15 -24 -15 -35 0 -15 5 -19 20 -15 11 3 20 1
20 -4 0 -5 10 -9 23 -10 21 0 21 -1 -3 -10 -14 -6 -55 -14 -92 -19 -47 -6 -76
-15 -101 -34 -19 -14 -46 -26 -60 -26 -18 0 -30 -8 -40 -29 -13 -27 -12 -33
21 -102 33 -70 35 -79 34 -174 -1 -186 3 -169 -42 -183 -22 -6 -55 -12 -74
-12 -46 0 -86 -19 -86 -40 0 -27 39 -70 64 -70 29 0 46 -18 46 -48 0 -21 4
-23 37 -20 28 2 38 -1 41 -13 4 -19 -38 -30 -81 -22 -19 4 -45 -4 -85 -25 -37
-19 -66 -29 -82 -25 -34 6 -79 -34 -90 -80 -10 -45 0 -47 52 -12 31 21 49 25
106 25 77 0 106 -16 82 -45 -7 -9 -17 -12 -24 -7 -13 10 -71 -9 -71 -23 0 -24
43 -62 77 -69 47 -9 102 -46 106 -72 2 -16 -5 -24 -30 -34 -18 -7 -40 -19 -48
-25 -43 -33 -146 -52 -162 -30 -5 6 -8 6 -8 -1 0 -8 -15 -6 -45 5 -25 9 -45
20 -45 24 0 16 -28 38 -35 27 -4 -6 -18 -1 -35 12 -16 12 -26 26 -23 31 3 6 1
7 -5 3 -7 -4 -12 -3 -12 3 0 6 -6 8 -14 5 -8 -3 -23 3 -34 14 -11 11 -23 17
-27 14 -3 -4 -3 2 1 12 6 15 4 17 -6 11 -10 -6 -12 -4 -7 9 5 14 3 15 -12 6
-15 -8 -22 -5 -34 13 -11 18 -47 121 -63 183 -2 8 -92 13 -301 18 -606 12
-918 16 -903 9 8 -3 18 -10 21 -16 10 -15 -2 -47 -17 -47 -16 0 -19 -17 -4
-22 5 -1 23 -95 40 -208 17 -113 33 -214 35 -226 4 -20 12 -21 231 -27 125 -4
335 -7 466 -7 141 0 238 -4 238 -9 0 -5 -28 -47 -63 -93 -35 -46 -77 -103 -94
-128 -24 -36 -50 -55 -124 -94 -52 -27 -128 -70 -169 -94 -91 -55 -251 -186
-275 -226 -10 -16 -48 -59 -85 -96 -36 -36 -76 -86 -88 -111 -37 -77 -112
-299 -148 -439 -34 -132 -69 -249 -142 -477 l-36 -113 -130 0 c-72 -1 -354 -2
-626 -3 l-495 -2 -46 23 c-67 32 -92 29 -141 -20 -36 -36 -43 -50 -54 -112
-18 -105 -48 -175 -109 -257 -31 -41 -54 -81 -52 -89 3 -19 79 -19 101 -1 8 7
22 36 30 64 8 29 37 87 64 129 l49 78 7 -62 c3 -33 6 -102 7 -152 0 -50 4
-124 8 -164 7 -77 1 -93 -26 -70 -14 10 -15 10 -9 0 5 -8 1 -19 -10 -28 -17
-12 -17 -13 -1 -8 25 9 21 -3 -14 -47 -24 -30 -36 -38 -54 -35 -18 3 -22 1
-18 -10 3 -8 9 -14 14 -14 17 0 9 -19 -11 -25 -12 -4 -37 -23 -56 -42 -24 -24
-39 -32 -46 -25 -7 7 -4 14 10 21 11 6 29 28 40 49 19 37 19 39 2 50 -10 6
-21 26 -25 44 -4 18 -23 57 -41 86 -19 29 -34 57 -34 62 0 16 -19 22 -50 15
-26 -6 -32 -15 -60 -101 -18 -53 -34 -94 -36 -92 -2 2 10 47 27 98 34 109 34
132 -1 140 -23 6 -23 7 -5 11 11 3 36 5 57 5 36 -2 36 -2 23 25 -8 15 -12 29
-10 31 3 3 -2 5 -10 5 -8 0 -15 -7 -15 -14 0 -8 4 -12 9 -9 5 3 11 0 14 -8 3
-8 -2 -16 -14 -19 -12 -3 -19 0 -19 9 0 8 -8 14 -17 14 -14 0 -15 2 -4 9 7 5
11 17 7 27 -3 11 7 82 23 159 88 421 84 390 97 740 5 127 10 176 22 194 8 14
18 40 23 58 6 27 3 38 -13 53 -20 19 -20 20 -4 417 9 219 18 461 21 538 9 252
15 408 20 505 14 274 17 600 6 600 -6 0 -11 -4 -11 -10 0 -5 -7 -10 -16 -10
-8 0 -12 5 -9 11 4 6 -2 13 -14 16 -12 3 -21 9 -21 14 0 5 -10 7 -22 4 -13 -3
-36 -1 -53 4 l-30 9 33 1 c19 1 31 5 27 11 -3 6 -1 10 4 10 6 0 11 5 11 11 0
6 -25 10 -67 9 -38 -1 -75 1 -85 5 -9 3 -31 5 -50 3 l-33 -3 -7 -115 c-3 -63
-11 -259 -17 -435 -7 -176 -14 -340 -16 -365 -2 -25 -7 -135 -11 -245 -3 -110
-8 -203 -10 -206 -1 -3 -4 -67 -5 -142 0 -75 -4 -137 -8 -137 -4 0 -6 -37 -4
-82 2 -61 0 -79 -8 -68 -9 12 -10 11 -6 -7 3 -15 0 -23 -8 -23 -7 0 -16 -6
-18 -12 -4 -10 -6 -10 -6 -1 -1 6 3 15 9 18 16 10 11 23 -7 19 -31 -7 -206
-18 -370 -23 -49 -2 -79 -6 -68 -8 11 -3 22 -9 25 -13 9 -14 65 -16 63 -2 -2
6 2 12 7 12 6 0 10 -9 10 -20 0 -21 20 -26 48 -11 10 5 33 6 52 2 l35 -8 -48
-8 c-26 -4 -61 -5 -78 -1 -18 3 -28 2 -24 -4 3 -5 -16 -9 -48 -9 -29 1 -84 -2
-122 -5 -67 -7 -69 -6 -45 9 15 10 18 14 6 11 -13 -5 -17 -2 -12 9 9 25 -2 17
-18 -12 -9 -16 -16 -22 -16 -13 -1 9 -5 6 -10 -7 -9 -22 -15 -23 -105 -23
l-95 0 0 -1330 c0 -731 3 -1330 6 -1330 3 0 25 13 49 29 23 16 72 45 109 66
53 30 69 35 81 25 11 -9 38 -9 111 -1 54 5 102 7 108 3 11 -7 16 -8 51 -11 18
-1 19 -2 3 -12 -32 -18 -21 -37 24 -44 48 -7 176 -12 348 -14 l116 -1 11 -31
12 -32 -74 6 c-45 4 -76 3 -80 -3 -4 -6 24 -10 73 -10 43 0 125 -4 183 -10
276 -26 530 -46 624 -50 26 -1 27 -3 10 -9 -11 -5 -38 -7 -60 -5 -22 1 -89 5
-150 9 -60 3 -213 15 -340 26 -308 26 -647 41 -659 29 -5 -5 -7 -12 -4 -15 3
-3 115 -12 249 -20 134 -8 273 -17 309 -19 36 -3 165 -11 288 -17 126 -8 222
-17 222 -23 0 -5 -48 -7 -127 -3 -200 11 -481 26 -563 32 -41 2 -131 7 -200
11 -69 3 -147 10 -174 15 -48 9 -91 -1 -67 -15 11 -7 319 -29 581 -41 80 -4
219 -12 310 -19 150 -11 162 -13 137 -26 -15 -7 -27 -21 -27 -30 0 -46 -33
-48 -375 -25 -206 14 -349 32 -693 91 -79 13 -155 24 -169 24 -15 0 -78 -21
-140 -47 l-113 -48 0 -67 0 -68 53 0 c75 0 307 -28 412 -50 218 -45 304 -52
352 -27 39 21 330 33 398 17 63 -14 314 -28 645 -36 140 -3 265 -7 278 -10 26
-5 30 -24 5 -24 -10 -1 -94 -22 -188 -49 -129 -37 -175 -46 -189 -38 -11 5
-94 12 -185 14 -92 2 -231 9 -311 15 -80 6 -248 13 -375 14 -126 2 -279 8
-340 13 -60 6 -159 13 -220 16 -60 4 -157 10 -215 16 -130 11 -120 12 -120 -5
0 -14 33 -19 195 -31 39 -3 128 -10 200 -16 72 -6 247 -12 390 -15 143 -2 303
-8 355 -14 52 -6 193 -14 312 -18 200 -7 242 -12 225 -28 -11 -12 -97 -17 -97
-6 0 6 -77 12 -208 15 -596 17 -868 27 -972 36 -380 34 -418 35 -394 12 16
-17 560 -53 831 -57 145 -1 267 -5 272 -8 5 -4 87 -7 181 -7 161 0 210 -7 210
-31 0 -11 -80 -20 -93 -10 -14 12 -290 24 -607 27 -124 1 -254 5 -290 9 -74 7
-466 36 -492 36 -10 0 -18 -7 -18 -15 0 -10 10 -15 28 -15 32 0 256 -16 437
-31 72 -6 287 -12 479 -14 295 -3 351 -5 364 -18 13 -14 10 -17 -29 -27 -197
-52 -315 -83 -378 -101 -47 -14 -88 -19 -114 -16 -27 4 -36 2 -26 -4 35 -22
83 -12 694 146 152 39 767 206 845 229 l51 15 -7 -47 c-3 -26 -9 -50 -13 -53
-3 -4 -94 -30 -201 -59 -107 -29 -258 -69 -335 -90 -77 -21 -210 -56 -295 -79
-85 -22 -258 -68 -385 -102 -126 -34 -237 -62 -245 -63 -10 -2 -17 -18 -20
-47 l-5 -44 -42 0 c-208 3 -225 4 -218 22 14 34 23 83 16 87 -10 6 -109 -91
-116 -114 -3 -11 -17 -20 -33 -22 -24 -3 -27 -8 -30 -45 -3 -44 15 -61 25 -24
3 13 11 17 24 14 21 -6 24 -14 10 -29 -13 -13 -42 -93 -46 -125 -1 -15 -6 -36
-10 -48 -11 -35 21 -14 41 27 14 28 19 33 22 19 5 -26 35 -17 44 13 33 119 45
150 56 150 8 0 11 7 7 19 -5 17 1 18 70 20 42 1 90 -1 108 -4 l32 -6 -2 -107
c-1 -59 -5 -154 -8 -212 -3 -58 -7 -181 -10 -275 -2 -93 -7 -217 -10 -275 -3
-58 -7 -179 -10 -270 -3 -90 -8 -172 -11 -182 -3 -10 0 -18 6 -18 6 0 8 -5 5
-10 -6 -10 -13 -193 -18 -457 -1 -73 -4 -133 -7 -133 -3 0 -6 -25 -7 -56 -1
-31 -8 -63 -15 -72 -10 -12 -10 -14 0 -8 8 5 12 0 12 -18 0 -13 3 -31 6 -40 6
-15 406 -16 4435 -16 l4429 0 0 1850 c0 1017 -3 1856 -6 1865 -7 18 -30 20
-37 3 -4 -10 -8 -10 -15 1 -6 8 -17 11 -26 8 -13 -5 -15 -2 -10 18 9 36 -4 31
-22 -8 l-15 -32 7 35 c9 49 25 70 52 70 14 0 21 4 17 11 -4 6 -13 8 -21 5 -8
-3 -14 -1 -14 4 0 6 -5 10 -11 10 -6 0 -9 -6 -6 -13 6 -15 -14 -35 -31 -29
-15 5 -15 -3 -2 -29 6 -11 7 -19 2 -19 -6 0 -12 9 -15 20 -3 11 -13 20 -24 19
-14 0 -15 -2 -3 -7 8 -4 16 -12 17 -18 1 -8 -8 -8 -33 0 -25 8 -34 17 -34 33
0 24 -15 39 -25 23 -3 -5 -1 -10 4 -10 6 0 11 -4 11 -10 0 -13 -37 -13 -44 -1
-4 5 0 12 6 14 8 4 4 8 -9 12 -13 4 -20 12 -17 19 3 6 -1 3 -8 -6 -9 -10 -19
-13 -27 -8 -11 6 -11 9 0 14 8 3 1 4 -15 0 -26 -5 -28 -3 -17 10 11 13 11 16
-3 16 -9 0 -16 5 -16 10 0 6 8 10 17 10 9 0 13 3 10 6 -4 4 -20 1 -37 -6 -44
-18 -49 -5 -5 15 19 10 34 20 31 22 -2 3 -13 0 -23 -5 -43 -23 -149 -13 -139
14 3 9 -2 14 -14 14 -33 0 -22 16 12 18 47 4 48 12 0 12 -52 0 -72 8 -72 29
-1 14 -2 14 -11 -1 -5 -10 -20 -18 -32 -17 -21 0 -21 1 -2 9 18 8 18 9 2 9
-10 1 -15 6 -12 11 3 6 -3 10 -14 10 -31 0 -25 18 7 23 17 2 9 5 -23 7 -27 1
-42 4 -32 7 10 3 17 13 16 26 -1 15 -3 17 -6 6 -3 -11 -11 -15 -24 -12 -20 6
-27 23 -8 23 5 0 7 5 3 11 -3 6 -15 9 -25 6 -11 -3 -16 -1 -13 5 4 6 0 14 -7
19 -8 4 -15 13 -15 19 -1 5 -2 15 -3 20 0 6 -13 11 -28 11 -25 2 -24 2 7 9 23
5 28 8 13 9 -13 0 -23 5 -23 9 0 5 -11 14 -25 20 -14 7 -22 17 -19 25 7 18
-16 36 -49 39 -14 1 -24 5 -22 8 2 3 -13 15 -33 25 -49 26 -48 25 -32 36 11 8
12 12 2 16 -6 2 -9 10 -6 15 5 7 2 8 -7 3 -7 -5 -25 -10 -38 -11 -16 -2 -21 0
-13 5 18 11 -10 34 -31 26 -8 -4 -21 2 -28 12 -20 27 -59 49 -115 67 -27 8
-43 15 -36 15 16 1 16 21 -1 21 -7 0 -23 9 -35 20 -15 14 -35 20 -67 20 -31 0
-47 5 -51 15 -4 8 -12 15 -20 15 -8 0 -14 6 -14 13 0 8 -3 8 -9 -2 -8 -12 -12
-12 -25 -2 -11 9 -16 10 -16 2 0 -17 -51 -13 -64 5 -7 9 -18 12 -29 9 -15 -6
-15 -9 -1 -22 22 -22 10 -27 -25 -10 -22 11 -31 12 -35 3 -3 -7 -5 -7 -5 2 -1
7 -16 12 -40 12 -25 0 -41 5 -45 15 -3 9 -19 15 -41 15 -19 0 -35 5 -35 10 0
6 -6 10 -13 10 -8 0 -24 9 -36 19 -13 11 -29 17 -38 14 -8 -3 -18 -1 -22 5 -7
11 -105 22 -221 26 -39 1 -54 -3 -53 -11 2 -9 -13 -13 -50 -15 -28 0 -56 -2
-62 -3 -5 -2 -21 -3 -35 -4 -20 -1 -22 -3 -10 -11 12 -8 10 -10 -10 -10 -20 0
-22 -2 -10 -10 13 -8 12 -10 -2 -10 -12 0 -18 -8 -18 -22 0 -35 -18 -2 -25 47
-6 41 -34 165 -67 295 -10 41 -34 167 -53 278 -23 133 -46 230 -65 280 -24 62
-30 92 -30 155 0 96 -12 122 -94 202 -34 33 -83 90 -109 128 -31 44 -66 80
-104 105 -163 108 -258 160 -463 253 -124 56 -233 109 -243 117 -9 8 -23 36
-31 61 -8 25 -23 68 -35 94 -12 27 -21 49 -21 50 0 1 142 -2 317 -7 287 -8
318 -7 328 8 9 12 29 16 77 16 72 0 78 -5 78 -77 0 -37 -12 -42 -87 -39 -67 4
-84 -6 -49 -29 21 -14 38 -16 91 -10 65 7 65 7 66 38 3 75 0 72 57 75 28 2 52
8 52 13 0 6 5 7 10 4 6 -3 10 1 10 10 0 9 3 14 8 12 7 -5 10 10 15 83 2 19 9
46 16 59 7 13 26 72 42 130 15 58 36 133 47 166 l19 60 -51 7 c-28 3 -368 14
-756 23 -388 10 -707 19 -709 21 -2 2 0 19 3 39 l7 35 179 0 179 0 -1 45 c0
25 -4 45 -8 45 -4 0 -6 12 -4 28 2 15 6 72 9 127 3 55 6 102 6 105 1 3 3 39 4
80 3 124 15 409 21 508 l6 92 28 0 c15 0 48 -11 71 -25 37 -21 57 -25 127 -25
76 0 84 2 89 20 3 11 10 20 17 20 66 2 527 -3 577 -6 l65 -4 23 58 c32 80 48
124 55 145 3 10 9 16 13 14 5 -3 9 7 10 22 1 14 20 76 42 136 22 60 39 110 38
111 -2 2 -603 16 -1234 30 l-303 7 0 -62 0 -62 -28 18 c-56 37 -67 44 -84 49
-10 4 -18 10 -18 15 0 5 -6 9 -14 9 -8 0 -16 6 -19 13 -6 16 -209 117 -235
117 -10 0 -29 -11 -42 -25 -13 -14 -31 -25 -41 -25 -10 0 -31 11 -47 25 -17
14 -31 24 -33 24 -2 -1 -14 -4 -26 -6z m197 -43 c-20 -13 -33 -13 -25 0 3 6
14 10 23 10 15 0 15 -2 2 -10z m-110 -100 c0 -5 -7 -10 -16 -10 -8 0 -12 5 -9
10 3 6 10 10 16 10 5 0 9 -4 9 -10z m845 -25 c0 -18 -8 -20 -82 -23 -76 -3
-83 -1 -83 16 0 30 10 33 90 30 67 -3 75 -5 75 -23z m-1175 0 c11 -13 10 -14
-4 -9 -9 3 -16 10 -16 15 0 13 6 11 20 -6z m424 -20 c-7 -16 -24 -21 -24 -6 0
8 7 13 27 20 1 1 0 -6 -3 -14z m-953 -293 c-5 -10 -17 -25 -26 -32 -13 -11
-14 -10 -8 6 6 17 5 18 -13 4 -18 -14 -18 -14 -5 2 7 10 17 16 21 13 4 -3 13
2 20 10 17 21 23 19 11 -3z m133 -727 c-4 -8 -7 -15 -9 -15 -2 0 -5 7 -9 15
-3 9 0 15 9 15 9 0 12 -6 9 -15z m-3144 1 c0 -2 -7 -6 -15 -10 -8 -3 -15 -1
-15 4 0 6 7 10 15 10 8 0 15 -2 15 -4z m4053 -65 c15 -8 27 -18 27 -22 0 -16
-21 -20 -36 -8 -18 14 -40 53 -27 47 4 -2 20 -10 36 -17z m-3903 -1 c0 -5 -5
-10 -11 -10 -5 0 -7 5 -4 10 3 6 8 10 11 10 2 0 4 -4 4 -10z m3953 -105 c-4
-20 -2 -23 16 -18 12 3 21 1 21 -6 0 -16 -49 -13 -67 4 -8 9 -12 22 -9 31 3 8
2 12 -4 9 -11 -7 -12 -3 -4 19 5 14 8 14 28 0 17 -10 22 -21 19 -39z m47 5
c-20 -13 -33 -13 -25 0 3 6 14 10 23 10 15 0 15 -2 2 -10z m-80 -537 c73 -112
87 -139 72 -142 -9 -1 -24 -10 -33 -17 -15 -13 -19 -11 -36 18 -11 18 -48 77
-82 130 -33 53 -61 103 -61 110 0 17 20 38 37 38 7 0 53 -62 103 -137z m1620
108 c0 -5 -36 -8 -80 -7 -72 1 -88 4 -76 17 8 7 156 -2 156 -10z m-1904 -18
c-10 -10 -19 5 -10 18 6 11 8 11 12 0 2 -7 1 -15 -2 -18z m55 0 c12 -15 12
-16 -4 -10 -10 4 -23 7 -28 7 -5 0 -9 5 -9 10 0 16 26 12 41 -7z m-491 -185
c11 -18 20 -45 20 -60 0 -15 5 -30 10 -33 6 -3 10 -25 10 -48 l0 -42 -19 36
c-32 60 -63 179 -46 179 3 0 14 -15 25 -32z m148 -422 c-10 -7 -16 -16 -13
-19 3 -4 2 -5 -2 -2 -3 3 -12 0 -20 -6 -7 -6 -13 -8 -13 -4 0 4 -7 1 -17 -6
-14 -12 -16 -12 -12 0 3 8 21 22 39 33 40 21 63 24 38 4z m-65 -70 c-10 -13
-20 -22 -22 -20 -4 4 29 44 36 44 2 0 -4 -11 -14 -24z m646 -10 c-2 -2 -14 -9
-26 -15 -19 -10 -22 -9 -17 4 4 8 15 15 27 15 11 0 18 -2 16 -4z m46 -126 c-3
-5 -11 -10 -16 -10 -6 0 -7 5 -4 10 3 6 11 10 16 10 6 0 7 -4 4 -10z m-176
-49 c-15 -5 -22 6 -14 19 6 9 10 9 16 -1 5 -8 4 -15 -2 -18z m131 9 c0 -5 -5
-10 -12 -10 -6 0 -20 -7 -30 -17 -10 -9 -18 -11 -18 -5 0 11 38 42 52 42 5 0
8 -4 8 -10z m-1426 -22 c-3 -4 -9 -8 -15 -8 -5 0 -9 4 -9 8 0 5 7 9 15 9 8 0
12 -4 9 -9z m-34 -7 c0 -5 -7 -11 -15 -15 -15 -5 -20 5 -8 17 9 10 23 9 23 -2z
m70 -31 c-6 -11 -12 -20 -14 -20 -2 0 -2 9 1 20 3 11 9 20 15 20 5 0 4 -9 -2
-20z m-155 -10 c3 -6 -1 -7 -9 -4 -18 7 -21 14 -7 14 6 0 13 -4 16 -10z m120
-8 c-2 -3 0 -11 6 -18 7 -8 6 -14 -2 -20 -8 -4 -9 -3 -5 4 4 7 3 12 -3 12 -6
0 -15 9 -20 19 -9 16 -8 18 10 14 11 -3 17 -8 14 -11z m-188 -24 c2 -17 0 -19
-7 -8 -5 8 -6 18 -4 22 8 12 10 10 11 -14z m148 12 c3 -5 -1 -10 -10 -10 -9 0
-13 5 -10 10 3 6 8 10 10 10 2 0 7 -4 10 -10z m-62 -12 c4 -10 8 -9 17 2 10
13 11 13 7 0 -5 -21 -47 -26 -47 -6 0 19 16 21 23 4z m64 -14 c-3 -3 -12 -4
-19 -1 -8 3 -5 6 6 6 11 1 17 -2 13 -5z m19 -46 c3 -11 3 -22 0 -26 -11 -11
-46 -12 -46 -2 0 6 9 10 20 10 24 0 26 9 4 25 -15 11 -15 12 0 12 8 0 18 -9
22 -19z m-84 -10 c-7 -7 -12 -8 -12 -2 0 14 12 26 19 19 2 -3 -1 -11 -7 -17z
m-182 -33 c5 3 14 -5 20 -17 11 -22 10 -22 -4 -4 -9 11 -16 15 -16 10 0 -23
-25 -9 -27 15 -1 21 0 22 9 8 5 -10 13 -15 18 -12z m210 -15 c0 -5 -4 -12 -10
-15 -5 -3 -10 2 -10 12 0 15 -2 16 -10 3 -5 -8 -10 -10 -10 -4 0 6 3 13 6 17
8 7 34 -3 34 -13z m-113 -21 c0 -21 -3 -26 -9 -16 -4 9 -5 22 -2 31 9 23 11
20 11 -15z m138 6 c-3 -32 -11 -40 -19 -20 -4 11 -2 14 6 9 7 -5 9 -2 5 8 -3
9 -3 19 0 22 10 10 11 7 8 -19z m-25 -34 c0 -5 -7 -12 -16 -15 -14 -5 -15 -4
-4 9 14 17 20 19 20 6z m-240 -13 c0 -9 4 -8 11 2 9 13 10 13 6 0 -5 -20 -34
-25 -34 -5 0 8 4 15 9 15 4 0 8 -6 8 -12z m203 -28 c3 -13 1 -20 -5 -18 -6 2
-13 14 -15 27 -4 27 12 20 20 -9z m2717 6 c0 -2 -9 -6 -20 -9 -11 -3 -18 -1
-14 4 5 9 34 13 34 5z m-5543 -12 c-3 -3 -12 -4 -19 -1 -8 3 -5 6 6 6 11 1 17
-2 13 -5z m2501 -25 c-3 -8 -7 -3 -11 10 -4 17 -3 21 5 13 5 -5 8 -16 6 -23z
m137 21 c-3 -5 2 -22 11 -37 15 -26 15 -27 0 -8 -9 11 -21 21 -26 21 -6 1 -15
2 -21 3 -5 0 -7 6 -3 12 5 8 9 8 14 -1 5 -8 9 -7 13 4 4 9 9 16 12 16 4 0 3
-4 0 -10z m-2895 -14 c0 -3 -4 -8 -10 -11 -5 -3 -10 -1 -10 4 0 6 5 11 10 11
6 0 10 -2 10 -4z m50 -6 c8 -5 11 -10 5 -10 -5 0 -17 5 -25 10 -8 5 -10 10 -5
10 6 0 17 -5 25 -10z m190 -9 c0 -12 -39 -21 -45 -11 -3 5 3 11 12 13 29 8 33
7 33 -2z m30 -1 c0 -5 -4 -10 -10 -10 -5 0 -10 5 -10 10 0 6 5 10 10 10 6 0
10 -4 10 -10z m2548 -4 c-10 -7 -14 -17 -10 -21 4 -5 1 -5 -7 0 -12 7 -11 10
4 22 24 17 36 17 13 -1z m-2638 -6 c0 -5 -4 -10 -10 -10 -5 0 -10 5 -10 10 0
6 5 10 10 10 6 0 10 -4 10 -10z m6019 -24 c-3 -3 -11 5 -18 17 -13 21 -12 21
5 5 10 -10 16 -20 13 -22z m-6062 18 c-3 -3 -12 -4 -19 -1 -8 3 -5 6 6 6 11 1
17 -2 13 -5z m4744 -45 l21 -21 -25 -24 c-57 -52 -88 -64 -171 -64 -114 0
-179 -23 -225 -79 -64 -78 -100 -113 -113 -109 -20 7 -20 50 -1 80 44 66 136
179 154 189 22 11 242 47 302 48 25 1 44 -6 58 -20z m-1781 3 c0 -4 -9 -15
-20 -25 -11 -9 -20 -12 -20 -7 0 6 7 13 15 16 8 4 12 10 9 15 -3 5 0 9 5 9 6
0 11 -3 11 -8z m2630 2 c0 -8 -19 -13 -24 -6 -3 5 1 9 9 9 8 0 15 -2 15 -3z
m185 -4 c4 -6 10 -8 14 -6 4 3 8 -1 8 -9 0 -11 -5 -10 -24 2 -12 8 -23 17 -23
19 0 8 19 3 25 -6z m-3015 -10 c12 -7 10 -9 -8 -7 -12 0 -22 5 -22 9 0 11 12
10 30 -2z m-45 -10 c-3 -5 -12 -10 -18 -10 -7 0 -6 4 3 10 19 12 23 12 15 0z
m3002 -17 c0 -9 -4 -10 -14 -2 -7 6 -13 12 -13 14 0 1 6 2 13 2 8 0 14 -6 14
-14z m-3167 1 c0 -8 -19 -13 -24 -6 -3 5 1 9 9 9 8 0 15 -2 15 -3z m177 0 c-3
-4 -2 -16 4 -28 10 -20 9 -20 -5 -2 -14 17 -13 36 1 36 4 0 3 -3 0 -6z m107
-9 c-4 -8 -11 -15 -16 -15 -6 0 -5 6 2 15 7 8 14 15 16 15 2 0 1 -7 -2 -15z
m2877 -22 c12 -16 12 -17 -2 -6 -9 7 -20 9 -24 5 -5 -4 -5 -1 -1 6 9 16 11 15
27 -5z m-3011 -3 c0 -5 -2 -10 -4 -10 -3 0 -8 5 -11 10 -3 6 -1 10 4 10 6 0
11 -4 11 -10z m-150 -19 c0 -5 -7 -11 -15 -15 -15 -5 -20 5 -8 17 9 10 23 9
23 -2z m324 -6 c3 -8 1 -15 -4 -15 -6 0 -10 7 -10 15 0 8 2 15 4 15 2 0 6 -7
10 -15z m3221 -3 c-3 -3 -11 0 -18 7 -9 10 -8 11 6 5 10 -3 15 -9 12 -12z
m-385 -11 c7 -14 7 -22 0 -26 -6 -4 -10 -3 -9 2 4 23 -2 35 -17 29 -8 -3 -12
-2 -9 4 10 16 23 12 35 -9z m46 -3 c-10 -6 -22 -6 -26 -2 -5 5 3 10 18 11 22
1 24 0 8 -9z m-112 -19 c-3 -5 -10 -7 -15 -3 -5 3 -7 10 -3 15 3 5 10 7 15 3
5 -3 7 -10 3 -15z m103 -14 c0 -8 -4 -12 -9 -9 -4 3 -8 9 -8 15 0 5 4 9 8 9 5
0 9 -7 9 -15z m248 5 c3 -5 -1 -10 -10 -10 -9 0 -13 5 -10 10 3 6 8 10 10 10
2 0 7 -4 10 -10z m-448 -11 c-9 -6 -15 -14 -12 -20 4 -5 1 -9 -4 -9 -6 0 -11
4 -11 8 0 12 22 32 35 32 5 0 2 -5 -8 -11z m147 3 c3 -5 -1 -9 -9 -9 -8 0 -12
4 -9 9 3 4 7 8 9 8 2 0 6 -4 9 -8z m340 -22 c-6 -6 -10 -3 -10 10 0 13 4 16
10 10 7 -7 7 -13 0 -20z m-3457 -22 c-3 -8 -6 -5 -6 6 -1 11 2 17 5 13 3 -3 4
-12 1 -19z m313 1 c-7 -11 -14 -19 -16 -16 -7 7 7 37 17 37 6 0 5 -9 -1 -21z
m2780 0 c0 10 3 11 13 2 8 -6 16 -10 18 -8 2 1 -2 -4 -10 -11 -9 -7 -19 -8
-24 -3 -5 5 -17 7 -25 3 -14 -5 -15 -4 -2 10 11 11 17 12 22 4 5 -8 8 -7 8 3z
m-2813 -21 c-3 -8 -6 -5 -6 6 -1 11 2 17 5 13 3 -3 4 -12 1 -19z m2727 4 c3
-5 -1 -9 -9 -9 -8 0 -12 4 -9 9 3 4 7 8 9 8 2 0 6 -4 9 -8z m63 -25 c4 -4 7
-16 8 -27 1 -15 -2 -17 -11 -9 -8 7 -13 6 -16 -3 -3 -8 -7 -6 -11 5 -3 9 -3
16 1 16 20 -3 32 2 27 11 -4 6 -10 8 -15 5 -5 -3 -11 -1 -14 4 -7 11 20 9 31
-2z m-5072 -17 c3 -5 1 -10 -4 -10 -6 0 -11 5 -11 10 0 6 2 10 4 10 3 0 8 -4
11 -10z m5335 6 c0 -2 -8 -10 -17 -17 -16 -13 -17 -12 -4 4 13 16 21 21 21 13z
m-53 -19 c0 -8 -6 -14 -14 -14 -9 0 -10 4 -2 14 6 7 12 13 14 13 1 0 2 -6 2
-13z m-300 -22 c0 -8 -4 -12 -9 -9 -5 3 -6 10 -3 15 9 13 12 11 12 -6z m353
11 c0 -2 -8 -10 -17 -17 -16 -13 -17 -12 -4 4 13 16 21 21 21 13z m-3333 -21
c0 -8 -4 -12 -9 -9 -5 3 -6 10 -3 15 9 13 12 11 12 -6z m3028 -25 c1 -14 -2
-17 -10 -10 -7 5 -14 9 -16 7 -2 -1 1 3 8 9 7 6 11 14 8 17 -3 4 -2 5 2 2 4
-3 7 -14 8 -25z m211 -16 c1 -9 0 -13 -4 -10 -3 4 -7 14 -8 22 -1 9 0 13 4 10
3 -4 7 -14 8 -22z m-3374 -36 c-9 -9 -12 -7 -12 12 0 19 3 21 12 12 9 -9 9
-15 0 -24z m3403 13 c3 -5 2 -12 -3 -15 -5 -3 -9 1 -9 9 0 17 3 19 12 6z
m-289 -33 c4 -7 3 -8 -4 -4 -7 4 -12 2 -12 -5 0 -7 -3 -10 -6 -6 -6 5 3 27 11
27 2 0 7 -5 11 -12z m219 -4 c-14 -15 -14 -17 0 -28 14 -10 14 -13 0 -31 -16
-19 -16 -19 -5 3 10 20 -2 34 -13 15 -2 -5 -2 -2 -1 5 2 6 -1 12 -6 12 -6 0
-10 5 -10 11 0 5 4 8 9 5 5 -3 11 1 15 9 3 8 10 15 16 15 6 0 4 -7 -5 -16z
m-174 -21 c13 -16 12 -17 -3 -4 -10 7 -18 15 -18 17 0 8 8 3 21 -13z m11 -48
c11 -19 10 -19 -9 -2 -11 9 -23 14 -28 10 -4 -5 -5 -2 -1 5 4 7 2 21 -5 30
-10 12 -7 11 10 -3 12 -11 28 -29 33 -40z m-2792 5 c0 -5 -5 -10 -11 -10 -5 0
-7 5 -4 10 3 6 8 10 11 10 2 0 4 -4 4 -10z m2753 -23 c3 -8 -1 -14 -9 -14 -15
0 -18 9 -7 20 9 9 10 9 16 -6z m134 -8 c2 -16 -1 -19 -9 -11 -5 5 -7 15 -4 21
10 15 12 14 13 -10z m208 1 c-3 -5 -12 -10 -18 -10 -7 0 -6 4 3 10 19 12 23
12 15 0z m-3451 -26 c3 -8 2 -12 -4 -9 -6 3 -10 10 -10 16 0 14 7 11 14 -7z
m1987 -28 c89 -16 173 -25 244 -25 119 -1 160 -10 221 -52 68 -46 70 -52 38
-103 -23 -36 -36 -46 -66 -51 -24 -4 -49 -1 -70 8 -18 9 -44 19 -58 22 -14 4
-45 17 -70 28 -31 15 -61 20 -96 18 -28 -1 -71 3 -95 9 -91 24 -123 32 -141
35 -11 2 -28 7 -39 10 -23 8 -77 -23 -85 -48 -5 -16 -16 -18 -97 -15 -99 2
-220 -8 -252 -22 -11 -5 -46 -14 -77 -20 -63 -12 -100 -40 -54 -40 14 0 26 -4
26 -10 0 -18 -37 -10 -63 14 -22 21 -24 28 -17 61 11 47 33 71 79 85 20 7 59
21 86 32 83 33 366 97 410 93 22 -2 101 -15 176 -29z m-1804 9 c0 -8 -4 -12
-9 -9 -5 3 -6 10 -3 15 9 13 12 11 12 -6z m3243 1 c0 -2 -7 -7 -16 -10 -8 -3
-12 -2 -9 4 6 10 25 14 25 6z m-350 -36 c6 -11 8 -20 6 -20 -3 0 -10 9 -16 20
-6 11 -8 20 -6 20 3 0 10 -9 16 -20z m246 -25 c-1 -8 -5 -17 -8 -21 -5 -4 -4
16 1 34 3 9 9 -1 7 -13z m-641 -45 c10 -11 16 -20 13 -20 -3 0 -13 9 -23 20
-10 11 -16 20 -13 20 3 0 13 -9 23 -20z m640 -9 c3 -5 2 -12 -3 -15 -5 -3 -9
1 -9 9 0 17 3 19 12 6z m-407 -219 c34 -29 61 -61 61 -70 -1 -15 -2 -15 -6 1
-2 9 -8 16 -11 14 -4 -1 -64 54 -133 123 -69 69 -91 94 -49 55 41 -38 104 -94
138 -123z m362 183 c0 -2 -6 -5 -13 -8 -8 -3 -14 1 -14 8 0 7 6 11 14 8 7 -3
13 -6 13 -8z m-3000 -25 c0 -5 -2 -10 -4 -10 -3 0 -8 5 -11 10 -3 6 -1 10 4
10 6 0 11 -4 11 -10z m2935 -10 c-3 -5 -12 -10 -18 -10 -7 0 -6 4 3 10 19 12
23 12 15 0z m-34 -33 c-8 -8 -14 -7 -23 2 -11 10 -9 11 6 5 15 -6 17 -4 11 6
-6 9 -4 11 4 5 9 -5 10 -10 2 -18z m33 -48 c-3 -5 -10 -7 -15 -3 -5 3 -7 10
-3 15 3 5 10 7 15 3 5 -3 7 -10 3 -15z m-101 -24 c-3 -9 -8 -14 -10 -11 -3 3
-2 9 2 15 9 16 15 13 8 -4z m217 -19 c-7 -7 -13 -7 -20 0 -6 6 -3 10 10 10 13
0 16 -4 10 -10z m-93 -11 c0 -8 -4 -12 -9 -9 -5 3 -6 10 -3 15 9 13 12 11 12
-6z m164 -19 c-6 -7 -7 -17 -3 -21 4 -5 1 -5 -6 -1 -9 6 -10 11 -3 20 6 7 7
17 3 21 -4 5 -1 5 6 1 9 -6 10 -11 3 -20z m-1886 -11 c33 -8 94 -19 135 -25
105 -15 150 -30 150 -49 0 -10 10 -16 28 -17 15 -1 55 -10 90 -20 60 -18 64
-18 133 0 39 10 100 22 134 26 35 4 89 20 121 34 69 32 103 33 138 5 68 -53
-16 -125 -144 -123 -39 0 -77 7 -96 17 -23 12 -61 16 -155 16 -134 0 -562 26
-576 34 -4 3 -38 2 -75 -2 -44 -5 -66 -3 -65 4 2 9 -53 12 -98 4 -18 -4 -20 1
-19 45 1 70 13 76 138 70 55 -3 128 -12 161 -19z m1820 15 c3 -6 -1 -7 -9 -4
-18 7 -21 14 -7 14 6 0 13 -4 16 -10z m-1442 -17 c-7 -2 -19 -2 -25 0 -7 3 -2
5 12 5 14 0 19 -2 13 -5z m1252 -11 c-3 -3 -11 0 -18 7 -9 10 -8 11 6 5 10 -3
15 -9 12 -12z m70 8 c3 -6 -1 -7 -9 -4 -18 7 -21 14 -7 14 6 0 13 -4 16 -10z
m40 0 c3 -6 -1 -7 -9 -4 -18 7 -21 14 -7 14 6 0 13 -4 16 -10z m120 -9 c3 -5
2 -12 -3 -15 -5 -3 -9 1 -9 9 0 17 3 19 12 6z m-25 -26 c0 -2 -6 -5 -13 -8 -8
-3 -14 1 -14 8 0 7 6 11 14 8 7 -3 13 -6 13 -8z m-372 -57 c-19 -28 -38 -35
-38 -13 0 11 5 15 14 12 8 -3 17 1 20 9 3 8 8 14 12 14 3 0 0 -10 -8 -22z
m340 -42 c-10 -7 -14 -17 -10 -21 4 -5 2 -5 -5 -1 -7 4 -10 13 -7 21 4 8 10
12 15 9 5 -3 9 0 9 7 0 7 3 9 7 5 5 -4 0 -13 -9 -20z m-118 -70 c0 -3 -4 -8
-10 -11 -5 -3 -10 -1 -10 4 0 6 5 11 10 11 6 0 10 -2 10 -4z m-779 -86 c26
-14 24 -21 -17 -68 -37 -42 -48 -46 -146 -55 -46 -4 -48 -4 -48 22 0 30 48 83
90 100 33 13 97 13 121 1z m2559 -110 c0 -5 -4 -10 -10 -10 -5 0 -10 5 -10 10
0 6 5 10 10 10 6 0 10 -4 10 -10z m125 -29 c3 -6 -10 -7 -32 -4 -50 8 -55 13
-10 13 20 0 38 -4 42 -9z m-1830 -49 c-3 -3 -11 0 -18 7 -9 10 -8 11 6 5 10
-3 15 -9 12 -12z m-5830 -241 c3 -5 1 -12 -5 -16 -5 -3 -10 1 -10 9 0 18 6 21
15 7z m415 -10 c0 -12 -20 -25 -27 -18 -7 7 6 27 18 27 5 0 9 -4 9 -9z m140
-60 c0 -66 -1 -69 -26 -74 -20 -3 -24 -1 -19 12 3 9 13 42 22 74 9 31 18 57
20 57 1 0 3 -31 3 -69z m7627 13 c-3 -3 -12 -4 -19 -1 -8 3 -5 6 6 6 11 1 17
-2 13 -5z m-2342 -34 c3 -5 1 -10 -4 -10 -6 0 -11 5 -11 10 0 6 2 10 4 10 3 0
8 -4 11 -10z m-1776 -33 c0 -9 -2 -8 -6 1 -2 6 -10 9 -15 6 -7 -4 -8 -2 -4 5
9 13 26 5 25 -12z m4151 13 c0 -5 -2 -10 -4 -10 -3 0 -8 5 -11 10 -3 6 -1 10
4 10 6 0 11 -4 11 -10z m-7291 -47 c1 -14 -35 -18 -43 -5 -3 5 2 18 12 30 15
19 18 19 24 4 4 -9 7 -23 7 -29z m4921 27 c0 -5 -4 -10 -10 -10 -5 0 -10 5
-10 10 0 6 5 10 10 10 6 0 10 -4 10 -10z m0 -34 c0 -2 -8 -10 -17 -17 -16 -13
-17 -12 -4 4 13 16 21 21 21 13z m-5457 -113 c-13 -2 -33 -2 -45 0 -13 2 -3 4
22 4 25 0 35 -2 23 -4z m1623 -6 c8 -8 -49 -193 -63 -202 -9 -5 -28 -17 -42
-25 -27 -16 -42 -46 -19 -38 39 15 58 18 58 11 0 -5 -24 -17 -52 -28 -108 -38
-438 -165 -582 -224 -82 -34 -151 -60 -153 -57 -3 3 10 11 28 19 19 8 59 24
89 37 30 13 59 27 65 32 5 4 14 8 21 8 21 0 109 43 97 47 -16 6 -17 37 -2 66
18 35 81 97 92 90 6 -4 7 -1 2 7 -4 7 -2 16 6 21 8 5 9 9 4 9 -17 0 -145 -129
-145 -146 0 -22 -31 -58 -52 -62 -10 -1 -31 4 -48 13 -16 8 -30 13 -30 10 0
-3 -15 9 -34 27 -60 59 -164 112 -208 106 -16 -3 -31 -1 -34 4 -3 5 -12 4 -20
-3 -10 -8 -18 -9 -25 -2 -14 14 -59 4 -59 -13 0 -7 -9 -12 -19 -11 -10 0 -17
6 -14 12 2 7 -3 12 -11 12 -9 0 -12 -6 -8 -16 5 -14 2 -13 -14 1 -14 12 -24
14 -30 8 -13 -13 -44 -2 -44 15 0 13 26 37 66 61 11 7 16 14 13 18 -3 3 -23
-7 -43 -23 -21 -17 -57 -37 -82 -47 -24 -9 -44 -20 -44 -25 0 -4 16 -1 36 7
38 16 53 9 54 -24 0 -7 11 -18 25 -24 l25 -11 -26 -24 c-29 -26 -29 -26 -55
-13 -15 8 -19 7 -19 -5 0 -8 -7 -15 -15 -15 -9 0 -12 6 -8 17 4 11 3 14 -5 9
-7 -4 -12 -1 -13 6 -1 7 -5 -3 -9 -22 -5 -19 -7 -37 -5 -40 2 -4 31 -5 63 -4
70 3 111 25 119 64 8 42 90 69 120 39 8 -8 13 -6 17 8 10 31 90 21 82 -10 -1
-7 -1 -9 1 -4 6 9 23 -1 23 -14 0 -13 -37 -11 -45 2 -4 6 -13 8 -20 5 -7 -2
-18 1 -24 7 -8 8 -11 8 -11 -1 0 -13 32 -28 76 -36 14 -3 40 -16 57 -29 18
-13 40 -26 50 -30 18 -7 24 -37 7 -37 -5 0 -10 4 -10 10 0 5 -7 7 -15 4 -8 -4
-15 -1 -15 5 0 6 -7 8 -15 5 -9 -4 -15 0 -16 7 -1 8 -4 3 -8 -11 -5 -16 -13
-24 -24 -22 -9 2 -17 -2 -17 -7 0 -6 -17 -9 -40 -7 -27 2 -40 -1 -40 -9 0 -17
-36 -25 -50 -11 -8 8 -9 7 -4 -7 5 -13 2 -16 -10 -11 -9 4 -16 1 -16 -6 0 -7
-7 -10 -16 -6 -8 3 -13 2 -10 -3 3 -5 -12 -8 -33 -7 -22 0 -37 4 -35 8 3 5 1
8 -5 8 -5 0 -12 -6 -15 -12 -5 -10 -7 -10 -12 0 -6 12 -24 7 -24 -7 0 -9 19
-12 78 -13 23 0 42 -3 42 -7 0 -5 56 -7 345 -11 46 -1 49 -2 31 -15 -29 -22
-233 -21 -280 2 -32 15 -38 15 -78 0 -24 -10 -51 -17 -60 -17 -26 0 -109 40
-103 50 3 6 -1 7 -9 4 -8 -3 -28 2 -45 10 -30 16 -31 17 -24 76 5 52 4 60 -11
60 -21 0 -21 16 2 30 11 8 13 13 5 16 -13 6 -8 134 7 169 5 11 11 50 13 86 5
77 26 106 79 111 37 3 1270 -1 1274 -5z m5932 -14 c15 -20 16 -47 2 -38 -6 4
-8 10 -5 15 7 11 -13 23 -45 26 -21 3 -22 1 -7 -7 9 -6 22 -7 27 -4 6 3 10 1
10 -4 0 -6 -10 -11 -22 -12 -13 0 -17 -3 -10 -6 35 -14 0 -17 -104 -10 -103 8
-117 7 -135 -9 -11 -10 -19 -30 -19 -51 0 -18 -4 -33 -10 -33 -5 0 -10 13 -10
28 0 15 -5 33 -12 40 -9 9 -9 12 0 12 6 0 9 6 6 14 -6 15 23 49 36 41 5 -3 11
-1 14 3 3 5 -9 9 -27 8 -20 -1 -32 -7 -32 -15 0 -8 -6 -16 -12 -18 -14 -5 -18
29 -5 41 4 4 84 5 177 2 143 -5 172 -9 183 -23z m497 -13 c13 -5 14 -9 5 -9
-8 0 -24 4 -35 9 -13 5 -14 9 -5 9 8 0 24 -4 35 -9z m-843 -81 c5 -4 3 -9 -6
-12 -13 -5 -16 1 -15 36 2 34 3 36 6 12 3 -16 9 -33 15 -36z m873 41 c3 -6 -1
-7 -9 -4 -18 7 -21 14 -7 14 6 0 13 -4 16 -10z m-625 -11 c0 -3 10 -5 21 -5
12 1 24 -5 27 -13 3 -10 0 -11 -9 -5 -16 10 -31 11 -134 16 l-80 3 0 -100 0
-100 30 -13 c16 -7 59 -12 97 -11 55 2 68 5 68 18 0 14 2 14 10 1 9 -13 11
-13 20 0 5 8 10 11 10 5 0 -32 -18 -37 -124 -33 -77 2 -109 7 -115 17 -10 16
-15 207 -5 222 6 11 184 9 184 -2z m7 -71 c-3 -7 -5 -2 -5 12 0 14 2 19 5 13
2 -7 2 -19 0 -25z m-257 8 c0 -3 -4 -8 -10 -11 -5 -3 -10 -1 -10 4 0 6 5 11
10 11 6 0 10 -2 10 -4z m300 -17 c0 -6 -4 -7 -10 -4 -5 3 -10 11 -10 16 0 6 5
7 10 4 6 -3 10 -11 10 -16z m-264 -67 c-11 -10 -14 3 -7 38 l6 35 3 -33 c2
-19 1 -36 -2 -40z m1104 34 c0 -3 -4 -8 -10 -11 -5 -3 -10 -1 -10 4 0 6 5 11
10 11 6 0 10 -2 10 -4z m-863 -38 c-3 -8 -6 -5 -6 6 -1 11 2 17 5 13 3 -3 4
-12 1 -19z m-2127 -3 c-7 -9 -15 -13 -19 -10 -3 3 1 10 9 15 21 14 24 12 10
-5z m3047 9 c-3 -3 -12 -4 -19 -1 -8 3 -5 6 6 6 11 1 17 -2 13 -5z m-1157 -47
c0 -18 -15 -17 -15 1 0 4 -4 13 -8 19 -6 9 -3 11 7 7 9 -3 16 -15 16 -27z
m-6665 -37 c3 -5 1 -10 -4 -10 -6 0 -11 5 -11 10 0 6 2 10 4 10 3 0 8 -4 11
-10z m159 -20 c15 -8 32 -25 37 -39 5 -13 13 -21 16 -17 4 4 13 -4 20 -16 l14
-23 -6 25 c-5 23 -5 23 8 8 8 -10 17 -15 20 -12 3 3 10 -4 17 -15 7 -14 7 -21
0 -21 -5 0 -10 6 -10 13 0 9 -2 9 -9 -1 -11 -19 -19 -17 -42 10 -11 13 -18 17
-14 11 3 -7 2 -13 -3 -13 -5 0 -12 10 -15 21 -4 15 -11 20 -22 15 -9 -3 -23 1
-31 9 -9 8 -12 15 -8 15 5 0 3 5 -4 12 -13 13 -17 41 -4 36 4 -2 20 -10 36
-18z m4579 13 c-7 -2 -13 -14 -14 -26 0 -12 -3 -16 -6 -9 -7 18 4 42 19 41 10
0 10 -2 1 -6z m3295 -16 c3 -16 1 -17 -17 -5 -25 16 -27 31 -4 26 10 -2 19
-11 21 -21z m-1408 -12 c14 -19 14 -19 -2 -6 -10 7 -18 18 -18 24 0 6 1 8 3 6
1 -2 9 -13 17 -24z m1351 7 c-7 -2 -18 1 -23 6 -8 8 -4 9 13 5 13 -4 18 -8 10
-11z m66 -54 c-3 -7 -5 -2 -5 12 0 14 2 19 5 13 2 -7 2 -19 0 -25z m-3389 -45
c-10 -2 -26 -2 -35 0 -10 3 -2 5 17 5 19 0 27 -2 18 -5z m-5241 -44 c-32 -8
-39 -1 -19 19 15 16 18 16 29 2 9 -12 8 -16 -10 -21z m928 31 c18 -8 18 -9 -5
-9 -15 -1 -32 -7 -39 -13 -11 -10 -10 -8 0 10 15 24 15 24 44 12z m-75 -10 c0
-5 -4 -10 -10 -10 -5 0 -10 5 -10 10 0 6 5 10 10 10 6 0 10 -4 10 -10z m4340
-8 c-8 -3 -18 -9 -21 -14 -3 -5 -11 -3 -17 5 -10 11 -6 14 21 14 17 1 25 -2
17 -5z m-68 -24 c-6 -6 -15 -8 -19 -4 -4 4 -1 11 7 16 8 5 17 7 19 4 3 -2 -1
-10 -7 -16z m-4909 5 c-13 -2 -33 -2 -45 0 -13 2 -3 4 22 4 25 0 35 -2 23 -4z
m-163 -28 c0 -10 -73 -35 -102 -35 -46 0 -28 24 23 31 65 9 79 10 79 4z m1463
-85 c10 -10 8 -11 -8 -5 -37 14 -112 18 -119 6 -4 -6 -26 -12 -49 -12 l-42 -2
35 -7 c27 -6 19 -8 -40 -8 -52 -1 -81 3 -94 13 -11 8 -32 15 -48 15 -15 0 -28
4 -28 10 0 11 284 18 343 9 21 -4 44 -12 50 -19z m-409 -22 c-6 -10 -4 -10 7
0 15 14 43 17 35 3 -10 -16 -95 -51 -123 -51 -26 0 -24 3 22 30 54 32 70 37
59 18z m-331 -15 c-13 -2 -33 -2 -45 0 -13 2 -3 4 22 4 25 0 35 -2 23 -4z
m652 -3 c3 -5 2 -10 -4 -10 -5 0 -13 5 -16 10 -3 6 -2 10 4 10 5 0 13 -4 16
-10z m-100 -20 c4 -6 -16 -10 -54 -10 -33 0 -63 5 -66 10 -4 6 16 10 54 10 33
0 63 -4 66 -10z m145 0 c0 -5 -4 -10 -9 -10 -5 0 -22 -5 -38 -12 -45 -18 -56
-19 -42 -2 6 8 22 14 35 14 12 0 26 5 29 10 3 6 10 10 16 10 5 0 9 -4 9 -10z
m-815 -15 c-16 -8 -38 -14 -47 -15 -10 0 -18 -5 -18 -11 0 -16 68 -2 108 23
18 11 36 18 39 14 4 -3 2 -6 -4 -6 -6 0 -31 -16 -57 -36 -42 -32 -51 -35 -87
-29 -23 4 -38 12 -36 18 6 19 79 57 107 56 24 -1 24 -1 -5 -14z m343 -19 c-10
-7 -14 -17 -10 -21 4 -5 2 -5 -5 -1 -16 9 -5 36 16 36 14 -1 14 -2 -1 -14z
m-45 -13 c-7 -2 -13 -11 -13 -19 0 -8 -4 -14 -10 -14 -5 0 -10 4 -10 8 0 12
22 32 35 31 5 0 4 -3 -2 -6z m67 -7 c0 -3 -4 -8 -10 -11 -5 -3 -10 -1 -10 4 0
6 5 11 10 11 6 0 10 -2 10 -4z m220 -27 c0 -5 -34 -9 -75 -9 -45 0 -75 4 -75
10 0 7 29 10 75 9 41 -1 75 -6 75 -10z m27 -21 c-3 -7 -5 -2 -5 12 0 14 2 19
5 13 2 -7 2 -19 0 -25z m-1007 0 c97 -15 158 -13 181 8 14 12 30 15 71 10 29
-3 136 -8 237 -10 110 -2 187 -8 194 -15 7 -7 58 -8 154 -4 141 6 143 6 143
-15 0 -11 4 -23 8 -26 4 -2 43 2 87 10 97 17 153 18 139 4 -6 -6 -56 -16 -112
-23 -56 -8 -105 -17 -109 -22 -5 -4 8 -5 27 -2 19 4 63 9 98 13 l62 7 0 -37
c0 -20 -4 -36 -10 -36 -5 0 -10 14 -10 32 0 36 -16 28 -23 -12 -4 -24 -4 -24
-6 3 -2 38 -21 34 -23 -5 l-1 -33 -4 33 c-4 29 -7 33 -26 28 -12 -3 -30 -6
-39 -6 -13 0 -18 -8 -18 -29 0 -16 -6 -31 -12 -34 -29 -10 1 -15 47 -7 90 15
138 19 129 10 -5 -5 -22 -10 -39 -13 -27 -4 -26 -4 8 -6 20 0 37 -5 37 -10 0
-5 -26 -7 -57 -4 -66 5 -200 9 -356 11 -79 2 -106 5 -101 13 5 9 48 10 156 6
121 -6 148 -4 148 7 0 10 -33 14 -155 18 -109 3 -159 9 -168 18 -10 10 -1 11
48 6 111 -11 269 -9 273 3 2 7 -14 11 -50 11 -95 0 -670 29 -768 39 -52 5
-144 13 -205 16 -60 4 -112 8 -114 11 -2 2 1 4 7 4 7 0 12 11 12 24 0 28 -5
27 140 4z m1060 -130 c0 -16 -3 -19 -11 -11 -6 6 -8 16 -5 22 11 17 16 13 16
-11z m-560 -28 c0 -5 -18 -10 -40 -10 -22 0 -40 5 -40 10 0 6 18 10 40 10 22
0 40 -4 40 -10z m48 -59 c3 -8 -1 -12 -9 -9 -7 2 -15 10 -17 17 -3 8 1 12 9 9
7 -2 15 -10 17 -17z m510 3 c136 -7 139 -9 128 -69 l-7 -35 -72 5 c-86 6 -474
25 -532 25 l-40 1 28 20 c15 11 24 26 20 32 -4 7 0 8 12 4 14 -6 16 -3 12 14
l-6 22 167 -7 c92 -3 223 -9 290 -12z m-518 -34 c0 -5 -5 -10 -11 -10 -5 0 -7
5 -4 10 3 6 8 10 11 10 2 0 4 -4 4 -10z m-220 -20 c0 -5 -5 -10 -11 -10 -5 0
-7 5 -4 10 3 6 8 10 11 10 2 0 4 -4 4 -10z m-296 -15 c86 -4 159 -11 161 -15
10 -17 -46 -19 -192 -8 -119 9 -153 15 -153 26 0 8 6 12 13 9 8 -3 84 -8 171
-12z m380 6 c4 -5 -3 -7 -14 -4 -23 6 -26 13 -6 13 8 0 17 -4 20 -9z m-149
-31 c-3 -5 -11 -10 -16 -10 -6 0 -7 5 -4 10 3 6 11 10 16 10 6 0 7 -4 4 -10z
m135 -1 c0 -5 8 -6 18 -2 9 3 14 3 11 -1 -10 -10 -127 -18 -141 -10 -17 11 19
22 70 21 23 0 42 -4 42 -8z m545 -20 c121 -6 225 -13 230 -15 15 -6 -665 6
-702 12 -18 4 -30 11 -27 16 6 10 30 9 499 -13z m-750 -64 c55 -3 168 -10 250
-17 83 -6 264 -12 402 -13 139 -1 256 -5 260 -9 4 -4 1 -11 -7 -16 -16 -11
-63 -13 -72 -5 -3 3 -108 7 -234 9 -276 4 -649 23 -722 36 -30 5 -122 7 -208
3 -111 -4 -154 -3 -154 5 0 12 216 22 330 15 30 -1 100 -5 155 -8z m-635 -15
c0 -5 -4 -10 -10 -10 -5 0 -10 5 -10 10 0 6 5 10 10 10 6 0 10 -4 10 -10z
m1550 -307 c0 -9 -102 -41 -635 -198 -88 -26 -185 -56 -215 -65 -30 -10 -113
-35 -185 -55 -71 -20 -181 -52 -242 -71 -83 -26 -118 -32 -130 -25 -16 8 -13
12 17 24 19 8 206 63 415 121 209 58 511 143 670 189 330 96 305 89 305 80z
m180 -1698 c0 -8 -8 -16 -17 -16 -17 -1 -17 -2 -1 -6 17 -4 17 -5 0 -22 -24
-26 -58 -35 -65 -17 -5 13 14 39 24 33 2 -1 -2 4 -10 11 -13 10 -13 12 2 12 9
0 17 5 17 10 0 6 11 10 25 10 16 0 25 -6 25 -15z m-60 -94 c0 -5 -7 -12 -16
-15 -13 -5 -14 -9 -4 -21 10 -12 10 -15 0 -15 -7 0 -10 -7 -6 -17 4 -10 4 -14
0 -10 -4 4 -13 2 -21 -4 -9 -9 -13 -8 -13 0 0 6 5 11 10 11 6 0 10 9 10 20 0
11 6 29 12 40 13 21 28 27 28 11z m-58 -43 c-7 -7 -12 -8 -12 -2 0 14 12 26
19 19 2 -3 -1 -11 -7 -17z"/>
<path d="M1246 3918 c-10 -99 -13 -158 -8 -162 12 -13 132 72 229 162 19 17
39 32 43 32 5 0 12 5 15 10 4 6 -43 10 -134 10 l-140 0 -5 -52z"/>
<path d="M1570 3951 c-14 -9 -39 -29 -57 -46 -17 -16 -45 -40 -62 -53 -25 -19
-29 -27 -21 -42 13 -23 13 -33 1 -25 -5 3 -12 1 -15 -4 -3 -5 8 -11 24 -13 34
-5 35 -3 15 32 -20 35 -20 34 26 64 l41 28 15 -21 c16 -23 38 -27 49 -9 5 8 2
9 -9 5 -18 -7 -37 18 -37 47 0 25 15 19 27 -11 l12 -28 -6 29 c-4 21 -1 33 12
42 27 20 14 24 -15 5z"/>
<path d="M1844 3959 c-11 -4 -31 -20 -47 -36 -27 -29 -27 -30 -13 -76 8 -26
12 -47 9 -47 -3 0 0 -7 7 -15 20 -24 21 -14 5 40 -20 65 -20 66 20 98 33 26
39 27 70 17 20 -6 75 -38 123 -71 82 -56 106 -79 84 -79 -5 0 -21 -11 -36 -25
-25 -23 -29 -24 -50 -10 -12 8 -26 12 -29 8 -4 -3 -7 -2 -7 3 0 5 -13 17 -29
27 l-28 16 18 -56 c11 -31 19 -60 19 -64 0 -4 -18 -21 -41 -37 l-41 -30 -66
41 c-37 23 -70 46 -74 52 -4 5 -8 7 -8 3 0 -4 -26 6 -57 22 -64 34 -63 33 -63
22 0 -5 17 -16 38 -25 47 -20 126 -64 177 -100 22 -15 47 -27 56 -27 9 0 36
17 59 38 l42 37 -15 38 c-18 43 -15 45 32 16 37 -22 32 -24 103 40 l27 24 -23
22 c-36 34 -206 139 -226 140 -9 1 -26 -2 -36 -6z"/>
<path d="M2040 3961 c0 -9 86 -112 108 -128 14 -12 14 -15 -4 -35 -19 -22 64
41 98 75 10 9 23 17 28 17 6 0 10 5 10 11 0 7 -10 5 -26 -6 -24 -16 -27 -16
-47 2 l-22 18 19 -22 c23 -27 11 -30 -18 -5 -21 17 -21 17 -3 -4 38 -45 -26
-34 -75 14 -46 43 -42 44 62 28 95 -15 127 -13 157 12 l28 23 -125 -4 c-68 -2
-139 -1 -157 3 -18 5 -33 5 -33 1z"/>
<path d="M1620 3946 c0 -10 -8 -25 -17 -33 -10 -8 -12 -12 -6 -8 7 3 29 2 48
-4 l35 -9 -1 36 c-2 31 -3 33 -6 9 -5 -33 -23 -31 -40 4 -11 20 -13 21 -13 5z"/>
<path d="M2435 3914 c-27 -24 -108 -86 -178 -136 -71 -51 -142 -107 -158 -125
-30 -34 -39 -69 -16 -61 212 79 347 134 347 141 0 5 -8 6 -17 3 -15 -5 -15 -4
1 9 40 31 8 23 -44 -10 -30 -19 -62 -35 -72 -35 -10 0 -18 -5 -18 -12 0 -9 -3
-9 -12 0 -14 14 -52 17 -44 3 3 -5 -1 -14 -9 -21 -18 -15 -49 -5 -39 12 6 9 9
9 12 0 4 -13 23 -17 21 -4 -4 26 3 42 21 42 11 0 20 7 20 15 0 8 5 15 10 15
12 0 32 15 62 48 12 12 26 22 30 22 5 0 23 13 41 30 18 16 36 30 40 30 5 0 6
4 3 9 -3 4 6 13 19 19 14 7 25 16 25 21 0 6 7 8 15 5 11 -5 13 -2 9 10 -9 22
-13 21 -69 -30z m-265 -264 c0 -5 -5 -10 -11 -10 -5 0 -7 5 -4 10 3 6 8 10 11
10 2 0 4 -4 4 -10z"/>
<path d="M1510 3845 c-7 -8 -19 -15 -26 -15 -16 0 -16 -6 -4 -35 7 -16 9 -17
9 -3 1 9 9 19 19 22 10 3 18 15 18 26 0 24 0 24 -16 5z"/>
<path d="M1667 3817 c-35 -31 -46 -47 -29 -47 4 0 21 14 39 30 37 35 45 36 78
14 29 -19 34 -5 7 19 -27 25 -52 20 -95 -16z"/>
<path d="M1578 3673 c7 -3 16 -2 19 1 4 3 -2 6 -13 5 -11 0 -14 -3 -6 -6z"/>
<path d="M1300 3651 c0 -6 4 -13 10 -16 6 -3 7 1 4 9 -7 18 -14 21 -14 7z"/>
<path d="M2173 3383 c9 -2 23 -2 30 0 6 3 -1 5 -18 5 -16 0 -22 -2 -12 -5z"/>
<path d="M480 8906 c0 -2 8 -10 18 -17 15 -13 16 -12 3 4 -13 16 -21 21 -21
13z"/>
<path d="M345 8850 c-3 -5 3 -10 15 -10 11 0 37 -11 58 -24 83 -52 470 -276
488 -282 17 -5 17 -4 -1 7 -11 7 -42 26 -70 44 -144 91 -462 275 -476 275 -4
0 -11 -4 -14 -10z"/>
<path d="M6724 8296 c-4 -11 -44 -13 -212 -10 -114 2 -216 -1 -227 -6 -18 -8
-17 -9 7 -9 15 -1 30 -5 33 -11 4 -6 -1 -7 -11 -3 -12 5 -15 3 -9 -6 6 -10 2
-11 -16 -6 -13 3 -19 3 -14 -2 18 -14 18 -63 1 -63 -9 0 -16 -4 -16 -9 0 -5 9
-7 20 -4 31 8 145 -15 190 -40 38 -19 69 -49 122 -115 20 -25 79 -30 96 -9 5
6 12 52 15 102 5 81 8 92 31 112 17 14 26 32 26 51 0 32 -27 52 -36 28z m-119
-146 c10 -16 -31 -49 -54 -43 -26 7 -28 41 -4 58 18 13 45 6 58 -15z"/>
<path d="M5945 8263 c-16 -3 -33 -10 -37 -16 -8 -12 -11 -174 -4 -166 2 2 7
36 9 74 3 39 6 71 6 73 1 1 10 2 21 2 17 0 20 -7 22 -47 1 -27 3 -59 4 -73 1
-14 3 -44 3 -67 1 -42 2 -43 35 -43 18 0 38 6 43 13 17 20 22 92 8 117 -17 31
-9 112 12 128 14 10 8 12 -38 11 -30 -1 -67 -4 -84 -6z m85 -7 c0 -3 -4 -8
-10 -11 -5 -3 -10 -1 -10 4 0 6 5 11 10 11 6 0 10 -2 10 -4z"/>
<path d="M6061 8194 c0 -11 3 -14 6 -6 3 7 2 16 -1 19 -3 4 -6 -2 -5 -13z"/>
<path d="M6869 8109 c-8 -11 -21 -21 -29 -23 -8 -2 -29 -9 -46 -15 -28 -11
-32 -18 -38 -62 l-7 -49 -247 5 c-136 3 -263 1 -282 -4 l-35 -9 33 -1 c18 -1
40 -7 47 -15 18 -18 15 -56 -5 -57 -10 0 -9 -3 5 -9 19 -8 18 -9 -5 -11 -14
-1 11 -5 56 -10 119 -11 179 -43 248 -132 26 -32 35 -37 73 -37 38 0 43 3 44
23 1 61 14 117 38 167 l26 55 3 -105 c4 -136 -2 -170 -31 -171 -12 -1 -139 -1
-282 -1 -176 1 -244 -2 -212 -8 27 -5 52 -12 55 -16 4 -4 -5 -5 -19 -2 -16 3
-26 0 -26 -7 0 -7 10 -11 21 -9 12 3 15 2 8 -2 -6 -3 -10 -10 -6 -15 3 -5 0
-9 -5 -9 -6 0 -11 -6 -11 -13 0 -13 -58 -43 -67 -33 -3 3 6 11 20 17 15 7 24
16 21 20 -8 14 -44 -10 -54 -34 -5 -13 -9 -16 -10 -7 0 13 -1 13 -10 0 -19
-29 -12 -42 13 -26 12 8 52 20 89 26 79 12 152 0 214 -36 40 -22 104 -86 104
-103 0 -15 51 -31 97 -31 39 0 44 2 38 18 -15 34 -9 126 8 144 8 7 18 31 23
53 7 33 9 20 12 -75 4 -145 1 -156 -40 -164 -18 -3 -131 -2 -253 4 -121 6
-258 7 -305 2 l-85 -7 157 -19 c158 -19 211 -19 558 3 l105 6 0 35 c1 19 5
200 9 403 4 202 6 367 3 367 -2 0 -11 -9 -18 -21z"/>
<path d="M6227 8075 c-57 -21 -137 -67 -137 -78 0 -13 102 1 115 16 6 7 33 12
60 13 28 1 40 -1 28 -3 -13 -3 -23 -9 -23 -14 0 -5 64 -9 150 -9 83 0 150 2
150 5 0 2 -14 12 -30 20 -18 9 -28 21 -24 27 4 6 3 8 -3 5 -6 -4 -26 -1 -43 7
-20 8 -27 15 -19 18 7 2 -31 5 -86 6 -65 1 -113 -4 -138 -13z"/>
<path d="M4565 8061 c-70 -7 -119 -35 -111 -63 3 -15 1 -18 -11 -14 -18 7 -89
-46 -98 -74 -13 -40 -14 -62 -3 -86 14 -29 18 -29 68 -4 22 11 52 20 67 20 22
0 25 2 13 10 -8 5 -11 10 -7 10 4 0 18 -7 32 -16 17 -11 36 -14 72 -9 35 5 44
4 33 -4 -8 -6 -25 -11 -36 -11 -12 0 -37 -7 -55 -15 l-34 -14 58 -1 c38 0 71
7 95 19 21 10 54 19 75 19 45 0 57 9 85 64 36 72 42 96 32 123 -7 19 -17 25
-39 25 -15 0 -34 7 -41 15 -13 16 -73 18 -195 6z"/>
<path d="M5901 8044 c0 -11 3 -14 6 -6 3 7 2 16 -1 19 -3 4 -6 -2 -5 -13z"/>
<path d="M5999 7956 c-3 -3 -26 -6 -52 -7 -54 -3 -63 -18 -48 -79 l9 -35 1 38
c1 26 5 37 16 37 24 0 35 -44 35 -136 l0 -85 35 4 c46 5 88 51 81 89 -5 27 9
49 16 26 3 -9 6 -9 12 0 4 7 2 12 -3 12 -6 0 -11 11 -11 25 0 16 -6 25 -15 25
-8 0 -15 4 -15 10 0 14 34 67 42 66 3 -1 10 2 14 7 4 4 -20 7 -53 7 -33 0 -62
-2 -64 -4z"/>
<path d="M1210 7790 c36 -12 72 -12 65 0 -3 6 -25 10 -48 9 -36 -1 -38 -2 -17
-9z"/>
<path d="M4091 7748 c0 -24 4 -52 9 -63 8 -18 9 -18 9 5 1 14 10 31 21 38 17
10 18 16 8 37 -6 14 -19 25 -30 25 -15 0 -18 -8 -17 -42z"/>
<path d="M6245 7766 c-51 -13 -114 -42 -150 -70 -19 -15 -18 -15 25 -16 25 0
58 7 74 15 15 8 49 15 75 16 65 2 81 -2 46 -11 -31 -8 7 -11 179 -16 l69 -1
-24 19 c-74 59 -201 86 -294 64z"/>
<path d="M3150 7635 c-1 -44 -5 -115 -9 -159 -7 -83 0 -98 36 -77 14 8 15 11
3 11 -10 1 -9 4 5 10 16 7 16 9 4 9 -16 1 -32 54 -21 66 8 8 7 85 -1 85 -5 0
-6 12 -3 28 3 15 1 45 -3 67 -8 35 -9 31 -11 -40z"/>
<path d="M5950 7641 l-55 -6 -1 -50 c-1 -28 0 -36 3 -17 2 17 7 32 11 32 24
-1 32 -24 36 -110 6 -97 14 -115 51 -105 11 2 25 5 31 5 7 0 21 19 33 43 12
23 21 38 21 33 0 -5 7 -3 16 5 11 9 15 27 13 58 -4 102 -2 109 34 114 17 2 -6
4 -53 4 -47 0 -110 -3 -140 -6z m146 -57 c-3 -9 -6 -23 -7 -32 0 -12 -3 -10
-10 6 -10 25 -5 42 13 42 5 0 7 -7 4 -16z m4 -66 c0 -7 -4 -19 -9 -26 -7 -11
-10 -10 -15 3 -3 9 -4 21 0 26 8 13 24 11 24 -3z"/>
<path d="M6206 7611 c-4 -7 -5 -15 -2 -18 9 -9 19 4 14 18 -4 11 -6 11 -12 0z"/>
<path d="M4200 7521 c0 -6 5 -13 10 -16 6 -3 10 1 10 9 0 9 -4 16 -10 16 -5 0
-10 -4 -10 -9z"/>
<path d="M6410 7470 c0 -5 5 -10 11 -10 5 0 7 5 4 10 -3 6 -8 10 -11 10 -2 0
-4 -4 -4 -10z"/>
<path d="M6445 7461 c-6 -11 13 -26 22 -17 4 3 1 6 -6 6 -7 0 -9 5 -6 10 3 6
4 10 1 10 -3 0 -7 -4 -11 -9z"/>
<path d="M340 7445 c0 -8 4 -15 8 -15 5 0 9 7 9 15 0 8 -4 15 -9 15 -4 0 -8
-7 -8 -15z"/>
<path d="M6199 7445 c-52 -19 -119 -54 -119 -63 0 -4 107 -8 238 -9 263 -2
260 -3 140 58 -50 25 -68 29 -140 28 -46 0 -99 -6 -119 -14z"/>
<path d="M4197 7444 c-3 -4 0 -15 6 -25 10 -16 9 -21 -3 -29 -12 -8 -9 -10 13
-10 21 0 27 5 27 23 0 33 -26 58 -43 41z"/>
<path d="M400 7400 c-6 -4 -22 -5 -36 -2 -13 2 -24 0 -24 -6 0 -6 -3 -19 -7
-29 -7 -17 -6 -17 11 0 20 19 31 23 20 6 -3 -6 7 -25 23 -42 17 -18 36 -47 44
-64 9 -21 25 -37 43 -43 38 -13 37 -14 24 15 -6 13 -15 22 -21 18 -6 -3 -7 -1
-3 5 4 6 2 29 -4 51 -7 29 -17 41 -35 45 -34 9 -32 26 3 19 104 -19 203 -10
176 17 -12 12 -196 21 -214 10z"/>
<path d="M2906 7301 c-3 -5 6 -12 20 -15 30 -8 53 2 33 15 -18 11 -46 11 -53
0z"/>
<path d="M510 7188 c0 -10 5 -18 10 -18 6 0 10 -7 10 -15 0 -8 5 -15 10 -15
11 0 5 14 -20 50 -8 13 -10 13 -10 -2z"/>
<path d="M555 7100 c3 -5 11 -10 16 -10 6 0 7 5 4 10 -3 6 -11 10 -16 10 -6 0
-7 -4 -4 -10z"/>
<path d="M590 7025 c0 -2 5 -16 12 -32 6 -15 10 -34 9 -40 -1 -7 5 -13 12 -13
8 0 18 -10 22 -22 4 -13 8 -26 10 -30 1 -5 3 -15 4 -23 0 -8 8 -15 16 -15 8 0
15 7 15 15 0 8 5 15 10 15 19 0 -10 41 -36 50 -14 6 -22 15 -19 20 3 6 -1 13
-9 16 -9 3 -16 16 -16 29 0 13 -7 25 -15 29 -8 3 -15 4 -15 1z"/>
<path d="M283 6945 c0 -27 2 -38 4 -22 2 15 2 37 0 50 -2 12 -4 0 -4 -28z"/>
<path d="M720 6839 c0 -6 -9 -8 -20 -4 -24 8 -28 -13 -4 -22 11 -4 12 -8 4
-13 -8 -5 -7 -10 4 -19 12 -10 15 -9 14 6 -1 10 2 28 6 41 4 12 5 22 2 22 -3
0 -6 -5 -6 -11z"/>
<path d="M735 6790 c3 -5 8 -10 11 -10 2 0 4 5 4 10 0 6 -5 10 -11 10 -5 0 -7
-4 -4 -10z"/>
<path d="M852 6717 c-2 -49 -5 -66 -14 -61 -8 5 -9 2 -5 -10 4 -10 1 -27 -7
-38 -13 -18 -14 -14 -9 32 3 35 1 50 -6 45 -6 -3 -11 1 -11 9 0 9 -6 16 -12
17 -7 0 -4 4 7 9 15 7 16 9 4 9 -9 1 -19 10 -22 21 -3 11 -10 20 -17 20 -17 0
-3 -98 18 -130 10 -14 22 -38 29 -55 6 -16 12 -24 12 -17 1 6 6 12 12 12 7 0
8 -48 5 -147 -3 -82 -5 -172 -5 -200 0 -41 -4 -53 -16 -53 -8 0 -15 -4 -15
-10 0 -5 4 -10 10 -10 6 0 8 -24 6 -57 -4 -57 -5 -58 -37 -61 -19 -2 -35 2
-40 10 -8 11 -11 11 -18 -1 -6 -9 -18 -11 -40 -6 -26 6 -30 9 -20 21 6 8 19
14 28 13 10 0 11 -2 4 -6 -17 -6 -16 -23 1 -23 23 0 27 28 6 35 -11 4 -24 3
-30 0 -5 -3 -10 -1 -10 4 0 6 -9 11 -20 11 -22 0 -27 16 -7 23 6 2 9 7 6 11
-9 10 -40 -5 -33 -16 3 -5 -3 -12 -15 -15 -11 -3 -18 -9 -15 -14 5 -9 -12 -12
-71 -13 -20 -1 -31 -7 -33 -18 -2 -10 2 -18 8 -18 7 0 9 7 6 16 -5 12 -2 15
10 10 9 -3 27 -9 40 -12 42 -11 26 -20 -36 -22 -32 -1 -63 -3 -67 -4 -4 -2 -8
1 -8 5 0 9 -43 36 -57 37 -5 0 -8 -7 -8 -15 0 -8 9 -15 20 -15 11 0 20 -5 20
-11 0 -8 -18 -10 -60 -6 -37 4 -60 3 -60 -3 0 -6 -7 -10 -15 -10 -14 0 -15 18
-10 133 3 72 3 128 1 122 -3 -5 -8 -68 -12 -140 -3 -72 -10 -121 -14 -110 -7
19 -7 19 -18 -2 -14 -26 -16 -73 -3 -73 5 0 11 11 15 23 5 23 10 24 128 31
376 21 474 28 482 36 8 8 16 153 16 310 0 47 3 126 8 175 4 50 5 131 2 180 -7
89 -7 90 -8 22z m-56 -51 c8 -27 8 -33 -3 -29 -7 3 -13 11 -13 18 0 7 -3 20
-6 29 -3 9 -2 16 2 16 5 0 14 -15 20 -34z m-155 -591 c0 -5 -15 -13 -33 -16
l-33 -6 35 -3 35 -2 -34 -9 c-18 -6 -36 -8 -38 -5 -11 11 8 36 27 36 13 0 18
4 14 11 -4 7 0 10 10 7 10 -1 17 -7 17 -13z m-424 -97 c-3 -8 -6 -5 -6 6 -1
11 2 17 5 13 3 -3 4 -12 1 -19z"/>
<path d="M715 6750 c-3 -5 -1 -10 4 -10 6 0 11 5 11 10 0 6 -2 10 -4 10 -3 0
-8 -4 -11 -10z"/>
<path d="M273 6680 c0 -25 2 -35 4 -22 2 12 2 32 0 45 -2 12 -4 2 -4 -23z"/>
<path d="M302 6690 c0 -19 2 -27 5 -17 2 9 2 25 0 35 -3 9 -5 1 -5 -18z"/>
<path d="M303 6600 c0 -25 2 -35 4 -22 2 12 2 32 0 45 -2 12 -4 2 -4 -23z"/>
<path d="M263 6460 c0 -36 2 -50 4 -32 2 17 2 47 0 65 -2 17 -4 3 -4 -33z"/>
<path d="M291 6414 c0 -11 3 -14 6 -6 3 7 2 16 -1 19 -3 4 -6 -2 -5 -13z"/>
<path d="M253 6370 c5 -31 17 -36 17 -7 0 15 -4 27 -10 27 -5 0 -9 -9 -7 -20z"/>
<path d="M294 6364 c3 -9 6 -20 6 -25 0 -5 4 -9 9 -9 4 0 6 11 3 25 -2 14 -9
25 -14 25 -6 0 -7 -7 -4 -16z"/>
<path d="M292 6285 c0 -16 2 -22 5 -12 2 9 2 23 0 30 -3 6 -5 -1 -5 -18z"/>
<path d="M801 6298 c-1 -10 -6 -18 -12 -18 -5 0 -7 -5 -3 -11 9 -15 28 16 20
34 -2 7 -5 4 -5 -5z"/>
<path d="M221 6224 c0 -11 3 -14 6 -6 3 7 2 16 -1 19 -3 4 -6 -2 -5 -13z"/>
<path d="M280 6220 c0 -11 4 -20 8 -20 4 0 8 9 8 20 0 11 -4 20 -8 20 -4 0 -8
-9 -8 -20z"/>
<path d="M211 6153 c-1 -24 1 -43 3 -43 8 0 12 48 5 66 -5 13 -8 7 -8 -23z"/>
<path d="M282 6139 c1 -42 1 -43 6 -9 l5 35 7 -30 c7 -29 8 -29 9 -4 0 15 -6
32 -14 39 -13 11 -15 7 -13 -31z"/>
<path d="M476 6164 c-4 -9 -4 -19 -1 -22 3 -3 5 1 5 9 0 12 2 11 10 -1 9 -13
11 -13 20 0 9 13 11 13 20 0 9 -13 11 -13 20 0 5 8 10 20 10 25 0 6 -4 4 -9
-4 -8 -12 -12 -12 -25 -2 -12 11 -16 11 -16 1 0 -9 -3 -10 -14 -1 -11 9 -15 8
-20 -5z"/>
<path d="M326 6157 c3 -10 9 -15 12 -12 3 3 0 11 -7 18 -10 9 -11 8 -5 -6z"/>
<path d="M610 6165 c0 -8 29 -12 39 -5 9 5 4 8 -13 8 -14 0 -26 -2 -26 -3z"/>
<path d="M718 6160 c12 -5 22 -14 22 -20 0 -5 7 -10 15 -10 19 0 19 7 1 26 -8
8 -25 14 -38 13 l-23 0 23 -9z"/>
<path d="M360 6150 c0 -5 5 -10 11 -10 5 0 7 5 4 10 -3 6 -8 10 -11 10 -2 0
-4 -4 -4 -10z"/>
<path d="M578 6153 c7 -3 16 -2 19 1 4 3 -2 6 -13 5 -11 0 -14 -3 -6 -6z"/>
<path d="M557 6133 c-4 -3 -7 -13 -7 -22 1 -13 3 -13 11 2 11 19 8 33 -4 20z"/>
<path d="M652 6124 c4 -21 22 -23 26 -1 2 10 -3 17 -13 17 -10 0 -15 -6 -13
-16z"/>
<path d="M710 6131 c0 -5 5 -13 10 -16 6 -3 10 -2 10 4 0 5 -4 13 -10 16 -5 3
-10 2 -10 -4z"/>
<path d="M791 6124 c0 -11 3 -14 6 -6 3 7 2 16 -1 19 -3 4 -6 -2 -5 -13z"/>
<path d="M440 6105 c0 -15 4 -24 10 -20 6 3 10 12 10 20 0 8 -4 17 -10 20 -6
4 -10 -5 -10 -20z"/>
<path d="M330 6100 c0 -11 4 -20 9 -20 5 0 7 9 4 20 -3 11 -7 20 -9 20 -2 0
-4 -9 -4 -20z"/>
<path d="M360 6100 c0 -11 4 -20 9 -20 5 0 7 9 4 20 -3 11 -7 20 -9 20 -2 0
-4 -9 -4 -20z"/>
<path d="M510 6110 c0 -5 5 -10 10 -10 6 0 10 5 10 10 0 6 -4 10 -10 10 -5 0
-10 -4 -10 -10z"/>
<path d="M737 6096 c-4 -10 0 -12 15 -8 14 3 19 1 14 -6 -5 -8 0 -12 14 -12
18 0 19 3 10 20 -12 23 -45 27 -53 6z"/>
<path d="M292 6063 c-12 -14 -22 -25 -22 -26 0 -1 16 -2 36 -3 28 0 32 1 18 9
-16 9 -16 11 -2 16 12 5 13 9 4 17 -9 9 -18 5 -34 -13z"/>
<path d="M270 6069 c0 -5 5 -7 10 -4 6 3 10 8 10 11 0 2 -4 4 -10 4 -5 0 -10
-5 -10 -11z"/>
<path d="M410 6070 c0 -5 5 -10 11 -10 5 0 7 5 4 10 -3 6 -8 10 -11 10 -2 0
-4 -4 -4 -10z"/>
<path d="M436 6054 c-4 -10 -1 -14 6 -12 15 5 23 28 10 28 -5 0 -13 -7 -16
-16z"/>
<path d="M273 5963 c9 -2 23 -2 30 0 6 3 -1 5 -18 5 -16 0 -22 -2 -12 -5z"/>
<path d="M335 5940 c-3 -5 1 -10 10 -10 9 0 13 5 10 10 -3 6 -8 10 -10 10 -2
0 -7 -4 -10 -10z"/>
<path d="M408 5933 c6 -2 18 -2 25 0 6 3 1 5 -13 5 -14 0 -19 -2 -12 -5z"/>
<path d="M8168 4623 c7 -3 16 -2 19 1 4 3 -2 6 -13 5 -11 0 -14 -3 -6 -6z"/>
<path d="M8188 4603 c7 -3 16 -2 19 1 4 3 -2 6 -13 5 -11 0 -14 -3 -6 -6z"/>
<path d="M1166 4407 c3 -10 9 -15 12 -12 3 3 0 11 -7 18 -10 9 -11 8 -5 -6z"/>
<path d="M9535 4140 c-3 -5 1 -10 10 -10 9 0 13 5 10 10 -3 6 -8 10 -10 10 -2
0 -7 -4 -10 -10z"/>
<path d="M8950 4110 c0 -6 7 -10 15 -10 8 0 15 2 15 4 0 2 -7 6 -15 10 -8 3
-15 1 -15 -4z"/>
<path d="M9531 4067 c2 -1 12 -9 22 -16 14 -12 17 -11 17 3 0 10 -8 16 -22 16
-12 0 -19 -1 -17 -3z"/>
<path d="M9540 4020 c-12 -8 -10 -10 8 -10 13 0 20 4 17 10 -7 12 -6 12 -25 0z"/>
<path d="M9580 4009 c0 -5 5 -7 10 -4 6 3 10 8 10 11 0 2 -4 4 -10 4 -5 0 -10
-5 -10 -11z"/>
<path d="M9085 4000 c-15 -6 -11 -8 16 -7 21 1 35 5 32 10 -5 9 -22 8 -48 -3z"/>
<path d="M9155 4001 c3 -6 14 -9 25 -8 24 2 15 17 -11 17 -11 0 -18 -4 -14 -9z"/>
<path d="M9445 4000 c-3 -5 -1 -10 4 -10 6 0 11 5 11 10 0 6 -2 10 -4 10 -3 0
-8 -4 -11 -10z"/>
<path d="M9388 3993 c6 -2 18 -2 25 0 6 3 1 5 -13 5 -14 0 -19 -2 -12 -5z"/>
<path d="M9425 3950 c-3 -5 -1 -10 4 -10 6 0 11 5 11 10 0 6 -2 10 -4 10 -3 0
-8 -4 -11 -10z"/>
<path d="M9437 3889 c4 -13 8 -18 11 -10 2 7 -1 18 -6 23 -8 8 -9 4 -5 -13z"/>
<path d="M9360 3886 c0 -9 30 -14 35 -6 4 6 -3 10 -14 10 -12 0 -21 -2 -21 -4z"/>
<path d="M9330 3869 c0 -5 5 -7 10 -4 6 3 10 8 10 11 0 2 -4 4 -10 4 -5 0 -10
-5 -10 -11z"/>
<path d="M9466 3845 c-3 -8 -1 -15 4 -15 6 0 10 7 10 15 0 8 -2 15 -4 15 -2 0
-6 -7 -10 -15z"/>
<path d="M9530 3849 c0 -5 5 -7 10 -4 6 3 10 8 10 11 0 2 -4 4 -10 4 -5 0 -10
-5 -10 -11z"/>
<path d="M9572 3834 c-1 -13 3 -24 9 -24 6 0 9 6 6 14 -3 8 -1 16 6 19 7 2 5
5 -4 9 -10 4 -15 -1 -17 -18z"/>
<path d="M9390 3840 c0 -5 9 -10 21 -10 11 0 17 5 14 10 -3 6 -13 10 -21 10
-8 0 -14 -4 -14 -10z"/>
<path d="M9391 3794 c0 -11 3 -14 6 -6 3 7 2 16 -1 19 -3 4 -6 -2 -5 -13z"/>
<path d="M9544 3785 c4 -13 2 -14 -14 -5 -17 9 -19 8 -13 -7 9 -25 24 -43 35
-43 6 0 8 7 4 15 -6 18 -1 19 25 5 17 -9 19 -7 18 17 0 15 -3 22 -6 16 -7 -18
-33 -16 -33 2 0 8 -5 15 -11 15 -6 0 -9 -7 -5 -15z"/>
<path d="M627 3223 c-17 -17 14 -23 111 -22 l107 2 -70 8 c-38 4 -86 10 -106
13 -20 3 -39 3 -42 -1z"/>
<path d="M13 2433 c9 -2 25 -2 35 0 9 3 1 5 -18 5 -19 0 -27 -2 -17 -5z"/>
<path d="M288 2413 c6 -2 18 -2 25 0 6 3 1 5 -13 5 -14 0 -19 -2 -12 -5z"/>
<path d="M136 2393 c-6 -14 -5 -15 5 -6 7 7 10 15 7 18 -3 3 -9 -2 -12 -12z"/>
<path d="M450 2399 c63 -11 90 -11 90 1 0 6 -28 9 -67 9 -67 -1 -67 -2 -23
-10z"/>
<path d="M568 2393 c7 -3 16 -2 19 1 4 3 -2 6 -13 5 -11 0 -14 -3 -6 -6z"/>
<path d="M622 2358 c-20 -20 -13 -32 8 -13 12 11 20 13 20 6 0 -7 5 -9 10 -6
13 8 3 25 -14 25 -6 0 -17 -5 -24 -12z"/>
<path d="M32 2287 c-32 -32 -32 -34 -31 -127 l0 -95 29 62 c21 46 34 62 52 65
24 3 33 32 11 34 -7 1 -17 2 -23 3 -6 0 -7 19 -3 46 3 25 4 45 1 45 -2 0 -18
-15 -36 -33z"/>
<path d="M256 2303 c-6 -14 -5 -15 5 -6 7 7 10 15 7 18 -3 3 -9 -2 -12 -12z"/>
<path d="M486 2304 c-4 -9 -4 -19 -1 -22 2 -3 7 3 11 12 4 9 4 19 1 22 -2 3
-7 -3 -11 -12z"/>
<path d="M335 2271 c-3 -22 -13 -47 -21 -58 -13 -17 -14 -16 -8 12 3 17 8 39
11 50 7 25 -70 -46 -95 -88 -9 -15 -22 -25 -29 -23 -7 3 -13 -1 -13 -9 0 -8
-7 -18 -15 -22 -12 -7 -26 -51 -52 -163 -5 -22 -4 -23 9 -12 13 10 16 9 21 -9
8 -30 23 -16 32 28 4 20 18 59 31 85 14 27 24 54 23 61 -2 12 18 67 24 67 6 0
0 -73 -8 -100 -4 -14 -8 -34 -10 -45 -2 -11 -4 -21 -5 -22 -2 -2 -3 -6 -4 -10
-1 -5 -8 -25 -15 -46 -15 -44 -7 -61 14 -30 8 11 27 23 42 26 27 5 28 8 31 73
1 38 8 71 14 75 6 4 8 11 6 15 -3 5 -2 18 3 29 13 29 4 -71 -11 -118 -6 -22
-9 -42 -5 -45 15 -15 34 34 40 104 5 52 11 74 21 74 19 0 63 47 70 74 3 13 4
35 2 47 -4 23 -5 23 -11 -3 -4 -16 -9 -39 -12 -53 -4 -20 -11 -25 -36 -25 -31
0 -31 0 -27 50 4 59 -7 67 -17 11z m-44 -124 c-13 -13 -15 1 -4 30 7 17 8 17
11 -1 2 -10 -1 -23 -7 -29z"/>
<path d="M224 2265 c3 -12 -2 -32 -15 -50 -11 -16 -19 -23 -18 -15 3 27 -1 40
-12 40 -6 0 -9 -6 -6 -14 3 -8 -11 -29 -33 -49 l-39 -35 32 3 c24 2 33 8 35
24 3 15 9 20 20 17 12 -4 24 6 40 30 21 32 22 36 6 51 -16 16 -16 16 -10 -2z"/>
<path d="M134 2216 c-10 -8 -15 -18 -11 -22 4 -4 15 0 24 9 22 21 12 31 -13
13z"/>
<path d="M430 2195 c-7 -9 -8 -15 -2 -15 5 0 12 7 16 15 3 8 4 15 2 15 -2 0
-9 -7 -16 -15z"/>
<path d="M585 2100 c-3 -5 -1 -10 4 -10 6 0 11 5 11 10 0 6 -2 10 -4 10 -3 0
-8 -4 -11 -10z"/>
<path d="M570 2070 c0 -5 5 -10 10 -10 6 0 10 5 10 10 0 6 -4 10 -10 10 -5 0
-10 -4 -10 -10z"/>
<path d="M232 425 c0 -16 2 -22 5 -12 2 9 2 23 0 30 -3 6 -5 -1 -5 -18z"/>
<path d="M382 420 c0 -14 2 -19 5 -12 2 6 2 18 0 25 -3 6 -5 1 -5 -13z"/>
<path d="M416 395 c8 -37 14 -45 14 -19 0 10 -5 26 -10 34 -8 11 -9 7 -4 -15z"/>
<path d="M132 360 c0 -19 2 -27 5 -17 2 9 2 25 0 35 -3 9 -5 1 -5 -18z"/>
<path d="M480 340 c0 -5 5 -10 10 -10 6 0 10 5 10 10 0 6 -4 10 -10 10 -5 0
-10 -4 -10 -10z"/>
<path d="M521 334 c0 -11 3 -14 6 -6 3 7 2 16 -1 19 -3 4 -6 -2 -5 -13z"/>
<path d="M702 305 c0 -16 2 -22 5 -12 2 9 2 23 0 30 -3 6 -5 -1 -5 -18z"/>
<path d="M155 300 c3 -5 8 -10 11 -10 2 0 4 5 4 10 0 6 -5 10 -11 10 -5 0 -7
-4 -4 -10z"/>
<path d="M70 290 c0 -5 5 -10 11 -10 5 0 7 5 4 10 -3 6 -8 10 -11 10 -2 0 -4
-4 -4 -10z"/>
<path d="M200 290 c0 -5 5 -10 10 -10 6 0 10 5 10 10 0 6 -4 10 -10 10 -5 0
-10 -4 -10 -10z"/>
<path d="M107 284 c-8 -13 20 -41 30 -30 3 3 1 6 -5 6 -6 0 -12 8 -14 18 -2
11 -6 13 -11 6z"/>
<path d="M10 270 c0 -5 5 -10 11 -10 5 0 7 5 4 10 -3 6 -8 10 -11 10 -2 0 -4
-4 -4 -10z"/>
<path d="M180 260 c0 -12 28 -21 35 -11 2 5 -4 11 -15 14 -11 3 -20 2 -20 -3z"/>
<path d="M696 245 c-3 -8 -1 -15 4 -15 6 0 10 7 10 15 0 8 -2 15 -4 15 -2 0
-6 -7 -10 -15z"/>
<path d="M6 215 c-7 -20 10 -65 26 -65 9 0 8 3 -2 10 -8 5 -11 10 -6 10 5 0 3
6 -3 14 -8 10 -9 16 -1 21 5 3 10 10 10 16 0 15 -17 10 -24 -6z"/>
<path d="M205 219 c-4 -6 1 -16 10 -23 10 -7 19 -28 20 -46 2 -19 0 -27 -5
-20 -5 9 -12 4 -21 -16 -15 -31 -57 -49 -46 -20 4 9 2 16 -3 16 -6 0 -8 -16
-4 -39 4 -25 2 -41 -6 -46 -17 -11 -25 2 -11 19 13 16 -1 56 -19 56 -14 0 -12
-18 3 -23 7 -3 3 -8 -10 -14 l-23 -8 24 -28 c13 -15 33 -27 45 -27 20 0 22 4
16 31 -5 22 -4 29 4 25 6 -4 11 -18 11 -31 0 -23 4 -24 53 -23 65 1 89 7 81
20 -4 6 -9 5 -15 -3 -4 -7 -11 -10 -15 -6 -4 3 -2 12 4 20 8 10 5 20 -13 42
-14 15 -25 29 -25 31 0 1 16 12 35 24 19 12 35 27 35 33 0 8 -3 8 -8 2 -8 -12
-48 -35 -60 -35 -5 0 -9 18 -10 41 -1 22 -4 45 -8 50 -7 12 -31 11 -39 -2z
m35 -9 c0 -5 -4 -10 -10 -10 -5 0 -10 5 -10 10 0 6 5 10 10 10 6 0 10 -4 10
-10z"/>
<path d="M112 189 c2 -21 -3 -39 -12 -46 -13 -11 -13 -12 3 -13 9 0 17 -4 17
-10 0 -5 4 -10 9 -10 5 0 8 11 7 25 0 14 -4 25 -8 25 -3 0 -5 11 -3 25 1 14
-2 28 -7 31 -5 4 -8 -8 -6 -27z"/>
<path d="M426 160 c4 -61 4 -64 -10 -40 -17 27 -21 15 -8 -22 5 -13 5 -34 1
-48 l-7 -25 -7 23 c-4 12 -11 22 -14 22 -4 0 -8 7 -8 15 0 8 4 15 9 15 4 0 8
5 8 10 0 19 -15 10 -35 -20 -21 -31 -41 -41 -31 -15 3 8 1 15 -4 15 -11 0 -13
-11 -4 -34 5 -12 10 -13 26 -5 26 14 35 4 14 -16 -18 -18 -21 -35 -6 -35 6 0
10 7 10 15 0 8 6 15 14 15 7 0 19 -7 26 -15 14 -16 35 -21 25 -5 -9 15 5 58
22 65 25 9 27 -2 4 -26 -22 -24 -14 -49 17 -49 13 0 12 3 -4 14 -11 8 -15 18
-10 23 5 4 11 2 13 -5 3 -6 9 -10 14 -6 5 3 12 -2 15 -10 7 -18 34 -22 34 -6
0 6 -4 10 -10 10 -5 0 -10 7 -10 15 0 9 -6 12 -15 9 -8 -4 -15 -1 -15 5 0 6 5
11 10 11 6 0 1 9 -11 21 -16 16 -20 29 -15 50 3 16 1 29 -4 29 -6 0 -10 -18
-10 -40 0 -22 -4 -40 -8 -40 -5 0 -7 12 -5 28 2 15 -1 47 -6 72 -9 42 -10 41
-5 -20z"/>
<path d="M40 200 c0 -5 5 -10 10 -10 6 0 10 5 10 10 0 6 -4 10 -10 10 -5 0
-10 -4 -10 -10z"/>
<path d="M165 190 c3 -5 8 -10 11 -10 2 0 4 5 4 10 0 6 -5 10 -11 10 -5 0 -7
-4 -4 -10z"/>
<path d="M200 170 c0 -5 5 -10 10 -10 6 0 10 5 10 10 0 6 -4 10 -10 10 -5 0
-10 -4 -10 -10z"/>
<path d="M560 160 c0 -6 7 -10 15 -10 8 0 15 2 15 4 0 2 -7 6 -15 10 -8 3 -15
1 -15 -4z"/>
<path d="M668 163 c-10 -2 -18 -12 -17 -21 0 -11 2 -12 6 -4 2 6 11 12 18 12
8 0 17 5 20 10 6 10 2 11 -27 3z"/>
<path d="M151 134 c0 -11 3 -14 6 -6 3 7 2 16 -1 19 -3 4 -6 -2 -5 -13z"/>
<path d="M485 140 c-3 -5 -2 -10 4 -10 5 0 13 5 16 10 3 6 2 10 -4 10 -5 0
-13 -4 -16 -10z"/>
<path d="M613 115 c0 -22 2 -30 4 -17 2 12 2 30 0 40 -3 9 -5 -1 -4 -23z"/>
<path d="M10 120 c0 -11 4 -20 9 -20 5 0 7 9 4 20 -3 11 -7 20 -9 20 -2 0 -4
-9 -4 -20z"/>
<path d="M573 133 c-7 -2 -13 -13 -13 -23 0 -10 -6 -21 -12 -23 -8 -3 -7 -6 4
-6 9 -1 19 7 21 17 2 9 2 -1 -1 -23 -2 -22 -8 -48 -14 -57 -5 -12 -5 -18 1
-18 18 0 29 33 30 88 0 28 0 52 -2 51 -1 0 -8 -3 -14 -6z"/>
<path d="M180 110 c0 -5 5 -10 10 -10 6 0 10 5 10 10 0 6 -4 10 -10 10 -5 0
-10 -4 -10 -10z"/>
<path d="M316 108 c3 -4 9 -8 15 -8 5 0 9 4 9 8 0 5 -7 9 -15 9 -8 0 -12 -4
-9 -9z"/>
<path d="M285 100 c-3 -5 -1 -10 4 -10 6 0 11 5 11 10 0 6 -2 10 -4 10 -3 0
-8 -4 -11 -10z"/>
<path d="M647 91 c-3 -12 -1 -21 3 -21 14 0 19 15 11 29 -6 9 -10 7 -14 -8z"/>
<path d="M45 80 c-3 -5 -2 -10 4 -10 5 0 13 5 16 10 3 6 2 10 -4 10 -5 0 -13
-4 -16 -10z"/>
<path d="M680 79 c0 -5 5 -7 10 -4 6 3 10 8 10 11 0 2 -4 4 -10 4 -5 0 -10 -5
-10 -11z"/>
<path d="M75 69 c-4 -6 -5 -12 -2 -15 2 -3 7 2 10 11 7 17 1 20 -8 4z"/>
<path d="M12 54 c-17 -19 -15 -29 3 -14 12 10 18 10 30 0 8 -7 15 -8 15 -4 0
5 -8 14 -18 20 -13 9 -20 8 -30 -2z"/>
<path d="M537 56 c-6 -15 1 -26 15 -26 4 0 8 9 8 20 0 23 -15 27 -23 6z"/>
<path d="M650 56 c0 -2 9 -6 20 -9 11 -3 20 -1 20 4 0 5 -9 9 -20 9 -11 0 -20
-2 -20 -4z"/>
<path d="M77 26 c-3 -8 1 -17 10 -20 22 -9 24 -4 8 17 -10 14 -14 15 -18 3z"/>
<path d="M601 23 c-1 -18 4 -23 25 -23 14 0 23 4 19 10 -3 5 -12 7 -19 4 -8
-3 -16 2 -19 13 -4 14 -5 14 -6 -4z"/>
<path d="M673 15 c0 -19 13 -19 21 0 3 9 0 15 -8 15 -7 0 -13 -7 -13 -15z"/>
<path d="M10 10 c0 -5 7 -10 15 -10 8 0 15 5 15 10 0 6 -7 10 -15 10 -8 0 -15
-4 -15 -10z"/>
</g>
</svg>
